<?xml version="1.0" encoding="UTF-8"?>
<svg width="1068px" height="2292px" viewBox="0 0 1068 2292" version="1.1" xmlns="http://www.w3.org/2000/svg" xmlns:xlink="http://www.w3.org/1999/xlink">
    <g id="Handala" stroke="none" stroke-width="1" fill="none" fill-rule="evenodd">
        <path d="M547.901,2291.064 C542.501,2289.064 539.101,2282.964 535.901,2269.464 C533.601,2259.864 533.501,2259.364 534.701,2238.964 C538.901,2166.464 539.601,2131.464 536.901,2128.764 C533.701,2125.564 530.501,2124.764 521.601,2124.764 C517.201,2124.764 505.101,2124.064 494.901,2123.264 C466.501,2120.964 446.801,2120.064 442.901,2120.864 C439.001,2121.764 432.901,2127.664 432.901,2130.664 C432.901,2131.664 432.201,2133.064 431.401,2133.764 C430.601,2134.464 429.901,2135.464 429.901,2135.964 C429.901,2136.364 428.401,2140.064 426.501,2144.064 C424.701,2148.064 421.101,2155.664 418.501,2161.064 C416.001,2166.464 413.601,2171.964 413.301,2173.264 C413.001,2174.664 412.101,2176.164 411.301,2176.864 C410.501,2177.464 409.901,2178.364 409.901,2178.764 C409.901,2179.264 407.901,2183.864 405.401,2189.064 C402.901,2194.364 400.901,2199.064 400.901,2199.564 C400.901,2200.064 400.201,2201.064 399.401,2201.764 C398.601,2202.464 397.701,2204.464 397.301,2206.364 C397.001,2208.164 396.101,2210.164 395.301,2210.864 C394.501,2211.464 393.901,2212.464 393.901,2212.964 C393.901,2213.464 391.901,2218.064 389.501,2223.064 C378.601,2245.564 359.701,2252.064 351.501,2236.064 C348.601,2230.364 350.001,2221.564 355.001,2213.764 C355.501,2212.964 356.201,2211.464 356.601,2210.464 C357.301,2208.064 362.501,2198.564 367.401,2190.264 C374.801,2177.764 378.801,2170.364 386.501,2154.764 C400.901,2125.464 403.901,2118.764 403.901,2115.764 C403.901,2113.864 398.601,2108.764 396.701,2108.764 C395.601,2108.764 373.901,2100.264 370.901,2098.664 C369.001,2097.664 362.501,2094.864 353.901,2091.264 C344.701,2087.364 336.901,2083.664 336.401,2082.764 C336.101,2082.264 334.401,2081.564 332.601,2081.164 C330.901,2080.864 327.801,2079.664 325.901,2078.664 C324.001,2077.564 321.501,2076.764 320.301,2076.764 C318.201,2076.764 311.101,2083.064 307.701,2087.864 C305.301,2091.364 292.901,2106.964 291.001,2108.964 C285.801,2114.564 267.901,2137.064 266.201,2140.164 C265.401,2141.764 263.101,2145.264 261.301,2147.964 C259.401,2150.564 257.901,2152.964 257.901,2153.264 C257.901,2153.564 256.301,2157.164 254.401,2161.264 C248.601,2173.564 242.301,2178.064 232.201,2177.564 C226.701,2177.264 226.401,2177.164 224.201,2173.264 C221.601,2168.564 221.101,2160.164 223.301,2155.964 C224.001,2154.464 225.001,2151.664 225.401,2149.764 C225.801,2147.864 226.701,2145.564 227.401,2144.764 C228.101,2143.964 229.001,2142.164 229.401,2140.764 C229.801,2139.364 231.901,2136.064 234.001,2133.264 C236.101,2130.564 238.601,2127.264 239.601,2125.964 C240.601,2124.664 242.201,2122.664 243.101,2121.464 C267.601,2090.964 286.201,2067.064 287.401,2064.664 C289.701,2060.264 288.801,2058.764 278.601,2049.664 C265.301,2037.664 250.601,2023.464 232.401,2005.064 C213.601,1985.864 212.801,1985.564 202.201,1992.564 C199.001,1994.664 195.501,1996.864 194.401,1997.564 C187.801,2001.664 185.901,2003.064 185.901,2003.664 C185.901,2004.064 184.901,2004.864 183.701,2005.464 C182.401,2006.064 178.701,2008.964 175.301,2011.864 C172.001,2014.864 168.001,2018.164 166.501,2019.264 C163.701,2021.364 160.901,2023.664 154.901,2029.064 C151.601,2032.064 140.201,2041.764 128.601,2051.564 C114.101,2063.764 101.501,2066.264 91.501,2059.164 C87.201,2056.064 81.501,2045.864 81.501,2041.264 C81.501,2032.764 89.601,2024.464 101.601,2020.464 C102.601,2020.064 104.101,2019.364 104.901,2018.864 C105.701,2018.364 111.601,2014.964 117.901,2011.464 C130.301,2004.564 147.901,1992.964 157.101,1985.664 C160.201,1983.264 165.601,1979.264 169.001,1976.764 C172.401,1974.264 175.701,1971.864 176.301,1971.264 C176.901,1970.764 179.201,1969.064 181.401,1967.564 C188.601,1962.664 193.901,1957.164 193.901,1954.664 C193.901,1953.364 191.201,1946.864 188.001,1940.264 C180.601,1925.464 176.901,1917.164 176.901,1915.864 C176.901,1915.364 176.301,1913.664 175.501,1912.064 C172.601,1906.164 166.201,1886.564 165.301,1880.764 C162.901,1865.164 154.601,1860.664 140.301,1867.364 C137.001,1868.764 131.201,1871.564 127.201,1873.364 C123.201,1875.264 119.701,1876.764 119.401,1876.764 C119.001,1876.764 114.901,1878.564 110.101,1880.864 C105.301,1883.064 98.701,1886.064 95.401,1887.464 C92.101,1888.764 87.201,1890.964 84.401,1892.264 C81.701,1893.564 75.801,1896.164 71.401,1898.164 C67.001,1900.164 62.701,1902.264 61.901,1902.764 C61.101,1903.364 59.301,1904.264 57.901,1904.964 C56.501,1905.664 54.601,1906.764 53.701,1907.564 C50.001,1910.664 44.901,1905.364 40.001,1893.464 C37.901,1888.164 37.801,1887.264 39.001,1882.964 C41.601,1873.764 46.201,1870.364 68.901,1861.264 C79.801,1856.964 81.901,1856.064 91.401,1851.664 C93.601,1850.664 98.301,1848.664 101.901,1847.264 C109.101,1844.364 112.201,1843.064 118.901,1839.964 C126.801,1836.364 132.301,1834.164 135.101,1833.464 C139.101,1832.464 145.301,1827.964 146.201,1825.464 C146.701,1824.264 146.501,1816.564 145.801,1808.264 C144.401,1790.864 145.201,1736.864 147.101,1719.064 C148.601,1705.064 148.101,1704.264 139.901,1705.064 C136.801,1705.464 132.901,1706.364 131.301,1707.264 C129.701,1708.064 127.801,1708.764 127.001,1708.764 C125.401,1708.764 109.701,1713.364 104.901,1715.364 C103.001,1716.064 99.601,1716.964 97.401,1717.364 C95.201,1717.764 92.201,1718.664 90.701,1719.364 C89.201,1720.164 87.101,1720.764 86.001,1720.764 C84.901,1720.764 80.601,1721.864 76.501,1723.264 C55.701,1730.264 40.101,1719.764 44.801,1702.164 C46.401,1696.364 55.901,1686.164 60.901,1684.764 C63.101,1684.164 65.101,1683.264 65.401,1682.764 C65.701,1682.164 71.101,1681.764 77.501,1681.764 C85.401,1681.764 90.101,1681.264 92.601,1680.264 C94.501,1679.464 98.501,1678.164 101.301,1677.364 C104.101,1676.564 113.201,1673.664 121.401,1670.864 C145.101,1662.864 148.201,1661.864 152.401,1661.264 C159.401,1660.064 159.901,1659.864 159.901,1656.764 C159.901,1654.664 159.201,1653.464 157.401,1652.564 C152.801,1650.164 132.901,1632.164 132.901,1630.464 C132.901,1629.864 132.201,1628.664 131.301,1627.664 C129.601,1625.764 128.401,1615.464 127.301,1591.764 C126.601,1578.464 128.401,1563.964 131.301,1558.164 C132.101,1556.564 134.201,1552.364 135.901,1548.764 C142.201,1535.664 158.801,1516.764 175.101,1503.964 C180.201,1499.964 185.101,1496.164 185.901,1495.464 C187.201,1494.364 190.501,1492.264 197.401,1487.964 C208.801,1480.964 222.301,1477.764 240.101,1477.764 C256.601,1477.764 260.201,1476.564 264.401,1469.364 C270.201,1459.464 266.501,1452.164 250.401,1441.264 C241.001,1434.964 237.201,1433.564 226.901,1432.664 C205.001,1430.764 197.901,1425.364 180.401,1397.264 C177.101,1391.964 172.601,1384.864 170.301,1381.364 C158.201,1362.764 144.401,1336.564 140.901,1325.564 C140.301,1323.464 139.301,1321.564 138.801,1321.264 C138.301,1320.864 137.901,1319.164 137.901,1317.464 C137.901,1315.664 137.001,1312.464 135.901,1310.264 C134.801,1308.064 133.901,1305.664 133.901,1304.764 C133.901,1303.964 133.001,1301.564 131.901,1299.464 C130.801,1297.464 129.901,1295.164 129.901,1294.564 C129.901,1293.864 129.201,1291.964 128.301,1290.264 C127.401,1288.664 126.301,1283.364 125.901,1278.564 C125.501,1273.864 124.401,1268.664 123.601,1267.064 C120.101,1260.364 117.001,1252.164 112.001,1236.264 C106.201,1217.764 106.001,1215.364 105.301,1170.764 C105.001,1147.964 104.601,1129.064 104.401,1128.764 C103.001,1126.564 108.501,1110.064 111.901,1106.264 C114.201,1103.664 124.101,1088.964 125.701,1085.764 C126.301,1084.364 127.301,1082.564 127.801,1081.764 C129.501,1079.164 136.701,1061.764 137.601,1058.264 C140.501,1046.864 150.701,1025.464 157.001,1017.564 C160.701,1012.964 166.201,1004.564 169.001,999.264 C169.501,998.164 171.301,995.064 172.901,992.264 C174.401,989.564 177.401,984.164 179.301,980.264 C185.101,969.064 190.801,958.564 191.901,957.264 C193.901,954.864 195.701,941.464 194.901,935.764 C194.401,932.764 193.501,923.064 192.901,914.264 C192.301,905.464 191.401,896.264 190.901,893.764 C190.401,891.264 190.001,885.764 189.901,881.464 C189.901,877.164 189.201,865.664 188.401,855.864 C183.601,801.364 185.101,742.864 191.501,730.764 C198.501,717.664 200.801,691.764 195.701,682.464 C195.101,681.264 194.001,676.864 193.301,672.764 C192.601,668.664 191.601,662.364 191.001,658.764 C185.901,627.764 184.001,545.764 187.801,518.264 C192.301,485.764 193.401,479.864 196.201,473.764 C199.301,466.964 206.201,458.664 212.901,453.764 C224.701,445.064 229.901,441.264 235.401,437.264 C238.501,435.064 243.001,431.564 245.501,429.564 C248.001,427.464 250.401,425.764 250.801,425.764 C251.201,425.764 254.101,423.864 257.201,421.564 C260.301,419.164 265.601,415.264 269.001,412.764 C277.901,406.164 280.901,401.264 281.901,391.364 C282.401,386.864 283.701,375.664 284.801,366.264 C288.201,336.264 288.201,335.664 286.001,332.164 C283.501,328.064 283.601,328.064 252.401,328.964 C237.601,329.364 207.401,330.164 185.401,330.764 C133.301,332.064 128.301,333.064 117.901,344.464 C113.101,349.664 107.301,359.264 105.501,365.264 C104.401,368.764 95.701,376.764 93.001,376.764 C92.501,376.764 88.701,379.364 84.601,382.664 C74.701,390.464 70.801,392.264 63.401,392.164 C53.401,392.064 43.301,388.664 34.701,382.664 C31.301,380.264 20.901,368.764 20.901,367.364 C20.901,367.064 19.101,363.964 16.901,360.564 C14.701,357.064 12.901,353.764 12.901,353.164 C12.901,352.564 12.201,351.464 11.401,350.764 C10.601,350.064 9.901,348.864 9.901,347.964 C9.901,347.064 9.001,344.564 8.001,342.364 C5.801,337.664 5.101,333.364 3.901,319.264 C3.501,313.764 2.401,305.664 1.501,301.264 C-0.299,291.764 -0.499,282.764 1.001,277.264 C2.101,273.264 8.301,263.664 10.201,262.864 C15.101,260.964 18.101,254.764 15.501,251.864 C11.501,247.364 8.301,232.464 9.801,225.064 C11.801,214.864 13.701,211.564 21.801,203.764 C26.601,199.164 30.201,194.764 31.101,192.264 C38.301,173.964 42.001,168.164 55.501,154.164 C60.701,148.864 65.201,143.264 65.601,141.864 C67.701,132.764 81.401,115.464 88.201,113.264 C89.101,112.864 89.901,112.264 89.901,111.764 C89.901,111.264 91.201,110.164 92.701,109.364 C96.901,107.164 102.701,100.964 105.901,95.264 C109.601,88.664 113.801,85.764 120.001,85.764 C122.601,85.764 128.301,85.064 132.601,84.164 C136.901,83.264 148.501,82.264 158.401,81.864 C172.001,81.364 177.301,80.764 179.901,79.564 C195.401,72.164 213.501,68.364 245.901,65.764 C252.801,65.164 261.301,64.264 264.901,63.664 C268.501,63.064 275.201,62.264 279.901,61.764 C284.601,61.364 290.101,60.264 292.301,59.364 C294.401,58.464 297.301,57.764 298.801,57.764 C300.201,57.764 303.001,56.964 304.901,55.864 C306.801,54.864 309.801,53.764 311.601,53.364 C313.301,52.964 315.301,51.964 316.001,51.164 C316.601,50.364 317.701,49.764 318.401,49.764 C319.101,49.764 321.301,48.364 323.401,46.764 C326.701,44.064 332.201,41.264 345.401,35.164 C350.101,33.064 357.001,30.664 361.401,29.764 C363.601,29.264 366.801,28.364 368.401,27.664 C376.601,24.464 408.701,22.964 426.901,25.164 C440.001,26.664 455.001,29.864 457.301,31.664 C457.901,32.064 459.501,32.764 460.901,33.064 C471.801,35.864 487.601,52.064 492.501,65.564 C498.501,82.364 501.501,83.164 508.301,69.764 C509.901,66.764 512.201,62.464 513.501,60.264 C514.801,58.064 516.801,54.564 517.901,52.464 C522.001,45.064 532.701,35.364 552.401,21.264 C555.501,19.064 560.201,15.564 562.801,13.564 C565.501,11.464 568.101,9.764 568.701,9.764 C569.201,9.764 570.701,8.964 572.001,7.864 C573.401,6.864 576.001,5.564 577.901,4.964 C579.801,4.364 583.401,3.064 585.901,2.164 C598.901,-2.936 633.001,1.264 664.401,11.764 C679.001,16.564 683.701,18.364 685.101,19.464 C685.801,20.064 687.701,20.764 689.301,21.164 C691.901,21.764 698.301,24.564 711.401,30.664 C713.601,31.764 717.401,33.464 719.901,34.564 C722.401,35.664 727.001,37.764 730.301,39.164 C733.501,40.564 737.001,41.764 737.901,41.764 C738.901,41.764 741.001,42.364 742.601,43.164 C746.401,45.164 763.001,49.764 766.101,49.764 C767.501,49.764 770.201,50.364 772.001,51.164 C773.901,51.964 779.001,53.064 783.401,53.664 C787.801,54.264 793.901,55.164 796.901,55.764 C799.901,56.264 810.101,57.164 819.401,57.764 C828.801,58.264 838.001,58.964 839.901,59.264 C843.801,59.864 855.901,57.464 859.901,55.164 C866.201,51.664 871.801,50.364 882.301,50.064 C895.201,49.564 903.101,52.664 912.801,61.864 C919.201,67.964 922.901,69.664 929.501,69.564 C937.801,69.364 947.601,76.364 957.701,89.564 C959.101,91.364 963.801,95.864 968.301,99.464 C972.801,103.164 977.501,107.464 978.901,108.964 C984.401,115.064 985.901,116.964 985.901,118.064 C985.901,118.664 986.501,119.864 987.301,120.664 C988.701,122.364 992.201,133.564 993.401,140.264 C993.801,142.364 994.701,145.464 995.501,146.964 C996.301,148.464 996.901,150.664 996.901,151.964 C996.901,153.264 997.801,155.964 998.901,158.064 C1000.001,160.064 1000.901,162.264 1000.901,162.964 C1000.901,163.564 1001.801,165.964 1002.801,168.164 C1009.001,181.264 1009.401,182.864 1009.401,193.764 C1009.401,204.064 1009.301,204.464 1005.401,212.264 C999.601,223.864 999.501,238.064 1005.301,250.064 C1007.401,254.264 1009.401,259.964 1009.701,262.564 C1010.501,268.064 1008.801,284.264 1007.101,287.464 C1006.401,288.664 1005.901,290.364 1005.901,291.264 C1005.901,294.764 999.401,306.364 994.601,311.564 C989.501,316.864 972.001,329.064 957.001,337.764 C913.201,363.064 882.401,358.064 866.901,323.264 C865.601,320.564 864.001,317.064 863.301,315.564 C862.501,314.164 861.901,312.364 861.901,311.564 C861.901,308.964 855.901,301.964 852.701,300.864 C850.201,299.964 843.001,300.164 822.701,301.464 C783.501,303.964 762.801,302.264 728.601,293.364 C725.401,292.564 722.301,291.464 721.601,290.964 C720.901,290.464 718.901,289.664 717.001,289.264 C715.201,288.864 711.801,287.664 709.501,286.664 C701.501,283.064 700.701,284.364 697.601,305.764 C695.201,322.164 695.501,328.664 698.601,328.764 C699.001,328.764 704.401,329.464 710.401,330.364 C716.501,331.164 726.601,332.464 732.901,333.264 C739.201,334.164 747.301,335.264 750.901,335.864 C771.301,339.264 783.101,341.064 788.501,341.764 C791.901,342.164 795.201,342.864 796.001,343.264 C796.701,343.764 800.301,344.664 803.901,345.364 C848.001,353.664 876.001,375.964 895.301,418.264 C896.301,420.464 897.801,423.364 898.501,424.764 C899.301,426.164 900.601,428.864 901.501,430.764 C902.401,432.664 904.401,436.964 905.901,440.264 C912.201,453.564 913.501,459.464 914.901,481.264 C915.401,488.964 916.201,499.364 916.801,504.264 C919.401,525.764 920.201,536.964 919.601,542.864 C919.201,546.364 918.501,554.364 917.901,560.664 C917.401,566.964 916.201,574.564 915.301,577.664 C910.701,593.664 909.501,597.664 907.901,601.764 C903.301,613.664 900.501,620.664 898.701,624.364 C897.101,627.664 896.901,628.964 897.801,630.564 C898.901,632.664 899.601,632.864 916.401,634.364 C940.501,636.464 955.101,647.264 962.901,668.764 C964.901,674.064 965.201,681.064 963.901,688.564 C963.201,692.264 962.101,702.064 961.401,710.264 C959.401,733.064 957.101,757.264 955.901,767.264 C955.301,772.264 954.201,781.664 953.401,788.264 C952.601,794.864 951.601,801.864 951.001,803.764 C950.501,805.664 949.801,811.064 949.401,815.764 C949.001,820.464 948.101,827.164 947.401,830.764 C946.601,834.364 945.701,841.364 945.401,846.264 C945.001,851.264 944.101,857.864 943.301,861.064 C942.501,864.264 941.401,870.764 940.901,875.564 C939.801,887.164 937.301,897.864 934.801,902.764 C933.601,904.964 932.501,909.464 932.201,912.764 L931.601,918.864 L937.101,924.064 C942.201,928.864 954.801,938.864 958.801,941.264 C960.901,942.564 979.501,957.364 983.401,960.864 C993.901,970.264 1000.601,978.364 1008.901,991.264 C1015.201,1000.964 1015.001,1000.764 1022.401,1015.364 C1026.001,1022.464 1028.901,1029.164 1028.901,1030.164 C1028.901,1031.064 1029.701,1033.264 1030.601,1035.064 C1031.501,1036.864 1032.801,1041.164 1033.501,1044.764 C1035.101,1052.964 1037.301,1059.564 1041.101,1067.764 C1045.301,1076.564 1047.901,1083.364 1049.101,1088.764 C1049.701,1091.264 1050.501,1093.764 1051.001,1094.364 C1052.301,1096.064 1056.701,1123.064 1057.401,1134.264 C1057.701,1139.764 1058.701,1150.064 1059.601,1157.164 C1061.101,1170.464 1061.001,1180.064 1059.001,1192.264 C1056.001,1210.364 1053.101,1223.864 1050.501,1231.764 C1049.701,1234.264 1048.101,1239.664 1046.901,1243.764 C1045.701,1247.864 1043.901,1253.164 1042.801,1255.564 C1041.801,1257.864 1040.901,1260.464 1040.901,1261.164 C1040.901,1261.964 1040.301,1263.864 1039.501,1265.464 C1038.701,1266.964 1035.501,1273.464 1032.501,1279.764 C1025.401,1294.464 1021.001,1302.364 1014.801,1311.564 C1012.101,1315.664 1009.901,1319.164 1009.901,1319.464 C1009.901,1320.064 1004.901,1326.964 1003.501,1328.264 C1002.901,1328.864 1001.101,1331.164 999.501,1333.564 C997.901,1335.864 996.301,1337.764 995.901,1337.764 C995.401,1337.764 994.201,1339.264 993.201,1341.064 C989.101,1347.964 966.001,1371.364 946.401,1388.464 C939.801,1394.164 931.101,1401.964 927.001,1405.564 C916.101,1415.464 916.401,1415.264 889.401,1429.164 C883.401,1432.264 876.801,1435.864 874.801,1437.064 C870.401,1439.764 852.001,1450.564 847.201,1453.264 C840.901,1456.764 840.001,1461.764 845.701,1461.764 C847.301,1461.764 850.801,1462.364 853.501,1463.164 C856.201,1463.964 861.601,1464.964 865.401,1465.364 C869.301,1465.664 873.201,1466.364 874.101,1466.864 C875.001,1467.364 878.601,1468.464 882.101,1469.264 C895.601,1472.264 903.401,1474.964 912.201,1479.364 C913.801,1480.164 915.501,1480.764 916.101,1480.764 C917.701,1480.764 932.501,1489.364 938.301,1493.664 C942.301,1496.664 954.001,1507.764 959.301,1513.764 C963.401,1518.364 972.901,1535.064 972.901,1537.764 C972.901,1538.664 973.601,1540.364 974.501,1541.664 C981.401,1551.464 983.901,1586.264 978.601,1598.864 C973.301,1611.564 963.101,1624.464 955.001,1628.864 C953.001,1629.964 950.701,1631.164 949.901,1631.764 C949.101,1632.264 946.801,1633.364 944.901,1634.264 C940.301,1636.264 933.301,1642.664 932.401,1645.564 C931.501,1648.564 935.901,1655.064 941.101,1658.464 C946.101,1661.864 950.801,1661.264 966.401,1655.564 C977.601,1651.564 1040.401,1649.364 1049.401,1652.764 C1057.901,1655.964 1061.701,1671.864 1055.501,1678.564 C1051.201,1683.364 1046.901,1684.664 1031.501,1685.664 C1023.401,1686.264 1016.401,1686.964 1015.801,1687.364 C1015.201,1687.664 1008.401,1688.364 1000.601,1688.864 C992.801,1689.364 983.301,1690.164 979.401,1690.764 C975.601,1691.264 967.501,1692.164 961.501,1692.664 C944.501,1694.164 942.801,1696.964 946.101,1717.164 C947.101,1723.264 948.501,1733.664 949.301,1740.264 C950.101,1746.864 951.201,1754.264 951.801,1756.764 C952.401,1759.264 952.901,1763.264 952.901,1765.564 C952.901,1775.264 959.301,1782.564 971.401,1786.864 C975.801,1788.464 980.201,1789.764 981.201,1789.764 C982.301,1789.764 984.301,1790.464 985.701,1791.264 C988.601,1792.864 994.701,1795.064 1001.901,1797.164 C1004.401,1797.964 1007.801,1799.264 1009.401,1800.164 C1011.101,1801.064 1013.201,1801.764 1014.201,1801.764 C1015.201,1801.764 1017.001,1802.364 1018.201,1803.164 C1019.401,1803.964 1022.001,1804.864 1023.901,1805.264 C1025.801,1805.664 1028.401,1806.564 1029.601,1807.364 C1030.801,1808.064 1033.501,1809.164 1035.601,1809.664 C1054.201,1814.464 1065.001,1820.364 1066.501,1826.464 C1069.001,1836.264 1061.801,1848.764 1053.601,1848.764 C1049.401,1848.764 1017.301,1841.364 1002.901,1836.964 C984.201,1831.364 975.201,1828.464 972.901,1827.264 C969.001,1825.264 959.401,1823.464 956.701,1824.064 C952.601,1825.164 949.301,1831.264 946.901,1842.264 C944.101,1855.164 940.901,1867.864 939.901,1869.864 C939.401,1870.764 938.501,1873.464 937.901,1875.864 C935.201,1886.264 927.401,1902.664 920.401,1912.964 C913.901,1922.364 916.101,1930.864 926.701,1937.464 C928.201,1938.364 933.801,1942.064 939.301,1945.664 C944.701,1949.364 949.901,1952.764 950.801,1953.264 C951.701,1953.864 954.401,1955.664 956.801,1957.264 C959.201,1958.964 961.901,1960.764 962.801,1961.264 C963.601,1961.864 966.701,1963.964 969.601,1966.064 C972.501,1968.064 975.301,1969.764 975.801,1969.764 C976.401,1969.764 977.201,1970.364 977.601,1971.064 C978.001,1971.664 981.801,1974.464 985.901,1977.264 C990.001,1979.964 996.801,1984.764 1000.901,1987.964 C1005.001,1991.164 1008.901,1994.164 1009.401,1994.564 C1010.001,1994.964 1012.201,1996.764 1014.401,1998.564 C1016.601,2000.364 1019.001,2002.264 1019.701,2002.864 C1022.101,2004.864 1020.801,2007.364 1013.401,2014.864 C1005.301,2023.164 1000.601,2026.064 996.901,2025.064 C994.301,2024.364 980.201,2017.164 978.101,2015.564 C977.401,2014.964 975.601,2013.764 973.901,2012.864 C971.301,2011.464 949.601,1998.764 940.101,1993.064 C938.101,1991.864 933.701,1989.464 930.401,1987.764 C927.101,1985.964 923.501,1983.764 922.301,1982.664 C921.201,1981.664 920.001,1980.764 919.601,1980.764 C918.901,1980.764 910.101,1975.864 905.401,1972.764 C896.101,1966.764 891.701,1964.764 889.301,1965.364 C886.701,1966.064 880.901,1973.764 880.901,1976.464 C880.901,1980.764 867.801,1995.264 858.001,2001.764 C838.001,2015.064 830.101,2024.364 831.201,2033.364 C831.701,2038.264 835.401,2046.364 838.401,2049.264 C844.701,2055.264 862.101,2078.564 865.701,2085.764 C866.301,2087.164 867.501,2089.164 868.101,2090.264 C868.801,2091.264 871.301,2095.164 873.701,2098.864 C876.001,2102.464 877.901,2105.764 877.901,2106.064 C877.901,2106.464 880.401,2110.364 883.401,2114.764 C886.401,2119.164 888.901,2123.164 888.901,2123.464 C888.901,2123.864 889.801,2125.064 890.801,2126.164 C895.001,2130.764 898.401,2139.064 898.401,2144.864 C898.401,2153.664 888.801,2163.764 880.401,2163.764 C876.401,2163.764 865.301,2155.064 859.401,2147.364 C856.001,2142.864 830.901,2105.264 829.601,2102.764 C829.201,2101.964 827.501,2099.264 825.901,2096.764 C824.301,2094.264 821.601,2089.764 819.801,2086.764 C818.001,2083.764 815.001,2079.164 813.201,2076.564 C811.401,2073.964 809.901,2071.564 809.901,2071.264 C809.901,2069.764 802.501,2060.964 799.501,2058.864 C794.401,2055.464 789.901,2056.564 774.401,2064.764 C767.301,2068.564 758.301,2073.264 754.401,2075.164 C750.601,2077.164 743.801,2080.764 739.401,2083.264 C735.001,2085.664 730.301,2088.264 728.901,2088.764 C712.401,2095.864 707.101,2102.764 711.301,2111.464 C712.001,2112.964 713.501,2116.264 714.601,2118.764 C715.701,2121.264 717.601,2125.264 718.801,2127.764 C719.901,2130.264 720.901,2132.764 720.901,2133.264 C720.901,2133.864 721.601,2135.664 722.501,2137.264 C723.401,2138.964 724.501,2141.364 724.901,2142.764 C725.401,2144.164 727.301,2149.064 729.301,2153.764 C731.301,2158.364 732.901,2162.564 732.901,2163.064 C732.901,2163.964 737.001,2173.264 739.401,2178.064 C740.201,2179.664 740.901,2181.464 740.901,2182.264 C740.901,2183.464 744.901,2193.264 747.001,2197.064 C755.601,2212.964 752.501,2228.464 739.501,2234.864 C726.201,2241.364 716.201,2233.364 709.401,2210.764 C708.701,2208.264 706.901,2203.164 705.401,2199.264 C704.001,2195.464 702.301,2190.664 701.801,2188.764 C701.201,2186.864 699.201,2181.264 697.301,2176.264 C695.401,2171.364 692.901,2164.764 691.801,2161.764 C690.701,2158.764 688.901,2154.364 687.801,2151.964 C686.801,2149.664 685.901,2147.164 685.901,2146.464 C685.901,2145.864 685.201,2143.964 684.301,2142.264 C683.401,2140.664 681.401,2135.764 679.801,2131.464 C673.501,2114.564 672.701,2113.864 660.201,2113.764 C655.201,2113.764 648.001,2114.364 644.201,2115.164 C640.501,2115.964 634.301,2116.864 630.401,2117.164 C626.601,2117.464 619.601,2118.464 614.901,2119.264 C605.801,2120.764 588.101,2122.764 583.801,2122.764 C582.401,2122.764 578.901,2123.464 576.001,2124.364 C567.301,2126.964 567.701,2123.164 568.401,2195.664 C568.901,2241.264 568.801,2260.064 568.001,2264.764 C567.301,2268.364 566.401,2273.864 565.901,2276.964 C564.301,2287.564 556.101,2294.064 547.901,2291.064 Z M618.901,2091.864 C633.801,2089.164 647.101,2086.064 653.401,2083.764 C656.201,2082.764 659.901,2081.564 661.801,2081.264 C665.001,2080.564 669.901,2078.664 678.401,2074.764 C682.301,2072.964 700.801,2067.164 705.901,2066.064 C720.301,2063.164 749.801,2050.464 764.901,2040.764 C767.401,2039.064 770.101,2037.464 770.901,2037.064 C771.701,2036.664 775.601,2033.964 779.601,2031.064 C783.601,2028.164 787.201,2025.764 787.801,2025.764 C788.301,2025.764 789.201,2025.164 789.601,2024.364 C790.001,2023.564 794.501,2019.964 799.401,2016.264 C804.401,2012.564 808.901,2008.964 809.401,2008.364 C810.001,2007.664 814.201,2003.764 818.901,1999.664 C823.601,1995.564 829.201,1990.564 831.401,1988.464 C844.301,1976.064 850.001,1970.364 854.901,1964.664 C857.901,1961.164 863.401,1955.164 867.001,1951.264 C875.701,1942.064 883.901,1930.764 887.301,1923.264 C889.901,1917.664 892.301,1912.364 895.601,1905.164 C896.401,1903.464 897.401,1900.564 897.901,1898.664 C898.401,1896.764 900.001,1892.164 901.401,1888.264 C905.201,1878.064 907.601,1871.464 911.301,1860.264 C913.201,1854.764 915.201,1849.164 915.701,1847.764 C916.301,1846.364 918.001,1841.264 919.401,1836.264 C920.901,1831.364 923.801,1822.564 925.701,1816.764 C929.901,1804.764 930.401,1788.864 927.501,1768.264 C926.701,1762.764 925.701,1752.464 925.401,1745.264 C925.101,1738.164 924.401,1729.364 923.901,1725.764 C923.401,1722.164 922.501,1714.964 921.901,1709.764 C920.901,1700.064 919.301,1692.364 915.901,1680.764 C914.801,1677.164 913.501,1672.364 912.901,1670.064 C912.301,1667.764 911.401,1665.564 910.901,1665.264 C910.301,1664.964 909.901,1663.964 909.901,1663.064 C909.901,1661.464 906.301,1652.964 903.401,1647.564 C902.601,1646.164 901.901,1644.464 901.901,1643.864 C901.901,1643.164 901.101,1641.464 900.001,1639.964 C899.001,1638.464 895.501,1632.864 892.301,1627.364 C889.101,1621.964 885.501,1616.064 884.401,1614.364 C881.101,1609.164 875.601,1599.864 872.601,1594.364 C871.001,1591.564 867.701,1586.264 865.301,1582.664 C862.901,1579.064 860.901,1575.764 860.901,1575.364 C860.901,1574.964 859.301,1572.464 857.301,1569.964 C855.401,1567.364 851.901,1562.764 849.601,1559.764 C842.801,1550.864 830.201,1537.564 818.401,1526.764 C811.601,1520.564 792.101,1504.764 791.301,1504.764 C791.001,1504.764 789.601,1503.864 788.201,1502.764 C786.801,1501.664 784.901,1500.764 784.101,1500.764 C783.201,1500.764 781.801,1500.164 781.001,1499.464 C776.801,1495.864 756.001,1494.364 743.401,1496.564 C734.001,1498.264 715.401,1501.964 709.901,1503.264 C706.901,1503.964 700.601,1505.264 695.901,1506.164 C673.001,1510.664 665.801,1512.064 658.401,1513.264 C654.001,1514.064 648.601,1515.164 646.401,1515.664 C640.401,1517.164 625.501,1519.564 605.401,1522.364 C585.501,1525.064 523.701,1525.864 500.901,1523.764 C495.101,1523.164 480.501,1522.264 468.401,1521.764 C447.401,1520.864 446.001,1520.764 437.901,1517.764 C426.201,1513.364 409.701,1508.964 392.401,1505.564 C389.701,1505.064 385.201,1503.964 382.401,1503.264 C379.701,1502.564 375.401,1501.464 372.901,1500.764 C370.401,1500.164 366.801,1499.164 364.901,1498.664 C363.001,1498.064 359.801,1497.264 357.901,1496.764 C353.101,1495.564 342.601,1491.764 341.401,1490.764 C339.501,1489.264 324.001,1485.764 319.301,1485.764 C316.801,1485.764 311.501,1486.764 307.701,1487.864 C298.201,1490.764 290.301,1496.264 270.401,1513.564 C268.801,1515.064 264.501,1518.664 260.901,1521.564 C257.301,1524.564 254.201,1527.264 253.901,1527.664 C253.601,1527.964 251.601,1529.764 249.401,1531.664 C238.201,1541.164 234.601,1544.564 232.701,1547.764 C229.301,1553.364 224.001,1562.864 221.901,1567.264 C220.801,1569.464 219.501,1571.964 219.001,1572.764 C217.401,1575.264 210.201,1591.064 209.401,1593.764 C209.001,1595.164 208.201,1596.864 207.601,1597.564 C206.401,1599.164 201.901,1609.764 201.901,1611.264 C201.901,1611.864 200.801,1614.564 199.401,1617.264 C198.101,1620.064 196.901,1622.964 196.901,1623.764 C196.901,1624.564 196.001,1628.164 194.801,1631.764 C190.801,1643.864 190.001,1647.264 188.901,1655.264 C188.301,1659.664 187.101,1665.764 186.301,1668.864 C185.501,1671.964 184.901,1676.264 184.901,1678.364 C184.901,1680.564 184.301,1684.264 183.501,1686.764 C182.701,1689.264 181.601,1694.464 181.101,1698.264 C178.101,1719.864 176.701,1728.964 175.401,1734.764 C174.601,1738.364 173.501,1745.464 172.901,1750.664 C172.301,1755.764 171.401,1761.864 170.901,1764.164 C169.701,1769.464 169.701,1777.264 171.001,1782.264 C171.501,1784.464 172.601,1790.064 173.401,1794.764 C174.601,1802.364 176.901,1815.164 181.301,1839.564 C182.201,1844.064 183.301,1848.664 183.901,1849.764 C184.401,1850.764 184.901,1852.564 184.901,1853.764 C184.901,1856.064 188.901,1873.764 191.301,1882.264 C192.101,1885.064 193.401,1889.964 194.201,1893.264 C195.001,1896.564 196.701,1902.664 197.801,1906.764 C199.001,1910.864 200.601,1916.764 201.301,1919.764 C203.301,1927.464 205.001,1931.764 207.601,1935.464 C208.901,1937.164 209.901,1938.864 209.901,1939.264 C209.901,1939.564 211.701,1942.264 213.901,1945.164 C216.101,1948.064 217.901,1950.764 217.901,1951.064 C217.901,1951.464 220.601,1955.464 223.901,1959.964 C243.801,1987.364 251.801,1996.164 269.201,2009.764 C274.801,2014.164 280.101,2018.364 280.901,2019.164 C281.701,2019.864 285.401,2022.764 289.101,2025.564 C292.901,2028.364 296.501,2031.164 297.101,2031.764 C297.801,2032.264 301.101,2034.764 304.401,2037.264 C307.701,2039.664 311.301,2042.364 312.401,2043.264 C320.501,2049.464 326.601,2053.764 327.501,2053.764 C328.101,2053.764 329.201,2054.464 329.901,2055.264 C330.601,2056.064 332.101,2056.764 333.301,2056.764 C334.401,2056.864 337.201,2057.564 339.401,2058.364 C341.601,2059.264 345.401,2060.564 347.901,2061.364 C350.401,2062.064 358.901,2064.964 366.901,2067.764 C374.901,2070.564 382.801,2073.264 384.401,2073.764 C389.901,2075.364 397.401,2077.964 402.101,2079.864 C404.701,2080.864 407.701,2081.764 408.901,2081.764 C410.001,2081.764 412.201,2082.364 413.701,2083.164 C415.201,2083.964 418.301,2084.864 420.401,2085.264 C422.601,2085.664 426.701,2086.564 429.401,2087.364 C451.301,2093.364 471.801,2094.664 544.901,2094.264 C603.101,2093.964 608.201,2093.864 618.901,2091.864 Z M173.401,1612.064 C175.901,1609.464 177.901,1606.864 177.901,1606.164 C177.901,1605.564 178.601,1604.464 179.401,1603.764 C180.201,1603.064 181.101,1600.964 181.501,1598.864 C183.301,1589.264 202.501,1557.064 218.301,1537.264 C226.701,1526.664 236.901,1512.264 236.901,1510.864 C236.901,1510.364 234.901,1507.964 232.501,1505.464 C225.101,1497.764 219.601,1497.964 210.401,1506.464 C207.701,1508.964 204.201,1511.764 202.801,1512.664 C201.401,1513.564 198.401,1515.764 196.301,1517.564 C188.701,1524.064 177.101,1532.764 176.201,1532.764 C175.701,1532.764 171.601,1536.164 167.101,1540.364 C158.101,1548.664 153.001,1557.164 149.101,1570.464 C142.601,1592.864 143.801,1600.964 155.401,1611.564 C163.201,1618.664 167.001,1618.764 173.401,1612.064 Z M939.701,1601.164 C948.901,1593.364 953.101,1577.264 950.001,1562.364 C947.201,1548.964 930.301,1525.364 916.301,1515.264 C914.801,1514.164 912.301,1512.264 910.801,1511.064 C909.301,1509.764 907.901,1508.764 907.601,1508.764 C907.301,1508.764 904.901,1507.264 902.401,1505.564 C896.701,1501.564 887.701,1496.264 882.901,1494.064 C881.001,1493.264 878.601,1492.064 877.601,1491.564 C870.001,1487.764 842.001,1483.164 835.901,1484.764 C831.701,1485.864 832.201,1489.264 837.101,1494.064 C839.501,1496.364 843.901,1501.164 846.901,1504.664 C849.901,1508.264 854.401,1513.364 856.901,1516.164 C861.801,1521.664 867.801,1529.264 869.401,1531.864 C870.001,1532.864 871.901,1535.664 873.701,1538.164 C875.401,1540.764 876.901,1543.264 876.901,1543.664 C876.901,1544.164 877.601,1545.064 878.401,1545.764 C879.201,1546.364 881.701,1550.364 884.101,1554.564 C886.401,1558.864 889.101,1563.664 890.001,1565.264 C891.001,1566.964 892.401,1569.664 893.201,1571.464 C899.301,1584.264 913.401,1599.064 922.001,1601.664 C924.101,1602.264 926.101,1603.264 926.401,1603.764 C928.001,1606.264 935.501,1604.764 939.701,1601.164 Z M559.901,1499.264 C573.501,1497.664 591.901,1495.464 612.401,1493.264 C619.601,1492.464 626.701,1491.364 628.301,1490.764 C629.901,1490.264 632.701,1489.764 634.601,1489.764 C636.501,1489.764 644.601,1488.864 652.701,1487.764 C692.501,1482.364 702.201,1480.764 705.601,1478.964 C706.801,1478.264 708.801,1477.764 710.101,1477.764 C713.001,1477.764 726.301,1473.964 744.901,1467.564 C752.901,1464.864 760.801,1462.264 762.401,1461.764 C765.001,1461.064 768.901,1459.564 778.401,1455.664 C781.101,1454.564 791.601,1450.964 795.901,1449.664 C797.801,1449.064 799.901,1448.164 800.501,1447.664 C801.101,1447.164 804.001,1445.864 807.001,1444.864 C826.901,1437.964 830.601,1436.564 832.301,1435.664 C833.301,1435.064 836.101,1434.064 838.401,1433.264 C846.801,1430.764 871.501,1418.764 879.801,1413.264 C882.201,1411.564 885.101,1409.764 886.201,1409.064 C887.301,1408.464 891.001,1405.564 894.301,1402.564 C902.201,1395.664 909.401,1389.764 914.501,1386.164 C916.801,1384.564 921.701,1380.964 925.501,1378.064 C942.501,1365.164 949.801,1358.564 961.201,1345.264 C964.501,1341.464 967.501,1338.064 967.901,1337.764 C968.301,1337.464 970.101,1334.664 971.901,1331.564 C973.601,1328.364 975.401,1325.764 975.801,1325.764 C976.201,1325.764 977.301,1323.964 978.201,1321.864 C979.201,1319.664 981.101,1316.264 982.501,1314.264 C983.901,1312.164 986.401,1307.964 988.001,1304.864 C989.601,1301.864 991.501,1298.664 992.201,1297.764 C992.901,1296.964 994.701,1294.064 996.101,1291.264 C997.601,1288.564 999.801,1284.264 1001.201,1281.764 C1007.901,1269.564 1017.901,1248.464 1017.901,1246.464 C1017.901,1245.764 1018.301,1244.764 1018.901,1244.164 C1020.801,1242.264 1026.301,1224.164 1030.101,1207.264 C1033.101,1193.964 1033.701,1162.464 1031.401,1149.064 C1030.401,1143.664 1029.301,1137.264 1028.901,1134.764 C1028.501,1132.264 1027.601,1128.964 1027.001,1127.264 C1021.401,1111.864 1018.701,1101.364 1017.801,1090.764 C1017.301,1084.464 1016.201,1077.264 1015.501,1074.764 C1014.701,1072.264 1013.801,1068.564 1013.401,1066.364 C1012.801,1062.764 1011.801,1060.264 1006.601,1048.864 C1004.401,1044.064 998.001,1034.064 994.101,1029.264 C969.601,999.364 933.401,962.964 921.401,956.364 C919.801,955.464 917.701,954.364 916.901,953.864 C913.701,952.064 906.101,948.764 905.001,948.764 C904.401,948.764 902.801,948.164 901.601,947.364 C900.401,946.564 897.201,945.664 894.601,945.264 C891.901,944.964 887.901,943.964 885.601,943.164 C883.401,942.364 878.401,941.264 874.501,940.664 C870.601,940.064 866.701,939.164 865.901,938.764 C860.001,935.664 823.501,935.764 814.401,938.864 C812.801,939.464 808.901,940.564 805.901,941.264 C802.901,941.964 798.401,943.264 795.901,944.064 C793.401,944.964 788.001,946.564 783.901,947.764 C779.801,948.864 775.101,950.564 773.601,951.364 C772.001,952.164 770.301,952.764 769.701,952.764 C767.301,952.764 740.901,965.764 740.901,966.964 C740.901,967.364 739.701,968.364 738.201,969.164 C736.601,969.964 733.901,971.964 732.101,973.664 C730.301,975.364 726.301,978.764 723.101,981.364 C708.101,993.464 689.001,1013.964 680.401,1027.264 C675.401,1034.964 664.901,1056.264 659.401,1069.764 C658.001,1073.364 655.901,1077.864 654.901,1079.864 C652.601,1084.164 652.201,1101.664 653.901,1131.764 C654.501,1141.364 654.901,1152.664 655.001,1156.764 C655.101,1165.064 657.201,1178.364 659.301,1183.764 C660.001,1185.664 661.101,1189.064 661.701,1191.264 C662.201,1193.464 663.201,1196.664 663.801,1198.264 C664.401,1199.964 666.001,1205.364 667.401,1210.264 C668.801,1215.264 670.401,1220.664 671.001,1222.264 C671.601,1223.964 672.601,1227.264 673.401,1229.764 C674.101,1232.264 675.901,1237.464 677.401,1241.264 C681.201,1251.364 683.901,1258.764 685.001,1262.664 C685.601,1264.564 687.001,1267.764 688.001,1269.664 C689.001,1271.664 689.901,1273.664 689.901,1274.264 C689.901,1274.764 691.701,1279.664 693.901,1285.064 C696.101,1290.364 697.901,1295.264 697.901,1295.864 C697.901,1296.464 698.801,1298.064 699.901,1299.464 C704.601,1305.464 699.701,1317.764 692.801,1317.764 C689.901,1317.764 683.801,1312.364 681.401,1307.764 C680.501,1306.064 679.401,1304.764 678.901,1304.764 C678.401,1304.764 677.501,1302.964 676.901,1300.764 C676.301,1298.664 675.401,1296.564 674.901,1296.264 C674.301,1295.964 673.901,1294.964 673.901,1294.064 C673.901,1293.164 673.001,1290.564 672.001,1288.364 C668.501,1280.964 662.301,1263.964 660.901,1257.764 C660.001,1253.964 657.501,1246.264 655.401,1240.764 C653.401,1235.564 648.901,1220.164 648.901,1218.664 C648.901,1217.864 648.301,1216.164 647.601,1214.764 C642.001,1203.964 635.501,1174.264 633.801,1151.764 C632.401,1134.264 633.401,1089.764 635.301,1083.064 C636.101,1080.464 637.001,1075.864 637.401,1072.864 C637.801,1069.864 638.801,1065.964 639.501,1064.164 C641.301,1059.964 641.301,1052.464 639.501,1048.964 C638.801,1047.464 637.901,1044.964 637.601,1043.264 C637.101,1040.464 633.601,1033.764 629.901,1028.364 C629.101,1027.164 627.501,1024.664 626.401,1022.864 C625.301,1021.064 621.201,1015.164 617.401,1009.864 C609.401,998.864 607.901,996.864 604.201,991.264 C602.801,989.064 599.701,985.064 597.401,982.264 C595.201,979.564 592.401,975.964 591.401,974.264 C587.301,967.664 574.501,952.664 571.301,950.664 C566.701,947.864 561.601,949.364 548.401,957.264 C546.201,958.564 543.301,960.264 541.901,960.964 C540.501,961.664 538.701,962.864 537.901,963.464 C537.101,964.164 533.701,966.864 530.301,969.464 C524.201,974.264 512.901,985.864 512.901,987.364 C512.901,987.764 512.201,988.864 511.301,989.864 C506.901,994.764 506.701,1010.464 510.901,1030.264 C511.901,1035.264 513.301,1045.564 513.901,1053.264 C514.501,1060.964 515.401,1071.064 515.901,1075.764 C517.101,1088.964 515.201,1110.364 511.301,1126.264 C510.501,1129.564 509.401,1134.564 508.901,1137.264 C505.601,1155.164 501.001,1169.664 495.701,1178.764 C495.201,1179.564 494.201,1181.664 493.401,1183.264 C491.101,1187.864 481.701,1202.664 479.101,1205.764 C475.901,1209.664 464.301,1224.664 462.001,1227.864 C459.701,1231.064 442.101,1254.664 440.101,1257.264 C439.701,1257.864 438.301,1259.864 437.101,1261.864 C432.401,1269.564 426.501,1273.764 420.601,1273.764 C414.101,1273.764 412.901,1272.664 412.901,1266.864 C412.901,1260.764 416.301,1254.064 426.901,1239.264 C429.501,1235.664 434.601,1227.864 437.401,1223.164 C446.901,1207.364 454.901,1194.464 457.701,1190.464 C459.501,1187.864 461.401,1184.664 462.001,1183.464 C462.501,1182.264 464.001,1179.464 465.401,1177.264 C470.101,1169.564 481.901,1145.164 481.901,1143.164 C481.901,1142.664 482.801,1140.064 483.801,1137.264 C493.201,1112.864 496.201,1079.064 491.001,1054.764 C489.101,1045.364 485.001,1030.564 483.101,1025.764 C482.601,1024.364 480.901,1019.464 479.401,1014.764 L476.701,1006.264 L463.801,993.764 C456.801,986.864 446.201,976.764 440.301,971.264 C419.201,951.764 409.601,942.164 403.101,934.264 C392.501,921.764 385.901,915.864 376.501,910.864 C373.201,909.164 370.101,907.364 369.501,906.864 C367.501,905.364 350.701,900.164 340.401,897.764 C325.201,894.264 306.001,899.564 290.901,911.264 C287.301,913.964 283.201,917.164 281.701,918.264 C278.501,920.764 262.901,933.264 260.901,935.064 C260.101,935.864 255.601,939.464 250.901,943.164 C246.201,946.764 239.901,952.064 236.701,954.864 C233.601,957.564 228.401,961.964 225.201,964.564 C218.701,969.764 213.301,975.264 208.801,981.264 C204.001,987.564 189.601,1007.264 187.901,1009.764 C187.101,1010.964 185.201,1013.564 183.701,1015.564 C182.101,1017.464 180.901,1019.664 180.901,1020.364 C180.901,1021.064 180.501,1021.764 180.101,1021.964 C179.301,1022.264 176.201,1027.264 169.001,1040.064 C167.701,1042.364 165.301,1047.464 163.701,1051.264 C162.101,1055.164 160.401,1058.964 160.001,1059.864 C159.501,1060.664 157.901,1064.564 156.401,1068.364 C154.901,1072.164 152.901,1076.864 152.001,1078.764 C151.001,1080.664 149.201,1085.264 148.001,1088.964 L145.801,1095.664 L147.901,1099.764 C151.901,1107.664 170.501,1112.364 183.701,1108.864 C192.601,1106.364 200.201,1095.064 201.901,1081.364 C203.601,1068.664 207.701,1056.164 211.801,1051.464 C213.901,1048.964 221.401,1045.664 223.201,1046.364 C230.601,1049.164 232.801,1066.764 227.201,1077.964 C225.001,1082.564 225.501,1085.664 228.701,1086.364 C237.701,1088.264 244.901,1091.164 249.301,1094.464 C254.001,1098.064 260.701,1106.064 260.801,1108.264 C260.901,1108.864 261.801,1110.864 262.801,1112.864 C263.801,1114.764 265.201,1119.564 265.801,1123.364 C267.501,1134.564 270.501,1140.064 276.601,1143.164 C282.501,1146.164 284.401,1145.264 299.501,1133.064 C313.701,1121.564 315.401,1120.864 321.301,1123.764 C325.701,1125.964 325.901,1126.364 325.901,1130.264 C325.901,1133.164 325.301,1134.964 323.901,1136.264 C322.801,1137.264 321.901,1138.564 321.901,1139.264 C321.901,1139.964 318.801,1143.164 315.101,1146.564 C301.201,1158.864 290.101,1170.564 289.001,1174.064 C287.701,1177.864 288.901,1184.864 291.201,1187.664 C292.801,1189.464 299.001,1200.664 303.401,1209.464 C305.401,1213.464 307.401,1216.964 307.801,1217.264 C308.301,1217.464 309.001,1219.264 309.301,1221.164 C310.201,1225.664 317.001,1232.764 320.401,1232.764 C321.801,1232.764 324.601,1232.064 326.701,1231.164 C336.401,1227.064 345.901,1230.264 345.901,1237.764 C345.901,1241.564 342.601,1245.764 339.601,1245.764 C336.601,1245.764 329.501,1250.464 325.901,1254.764 C321.901,1259.564 320.801,1262.864 317.201,1280.764 C316.301,1285.164 307.601,1303.964 299.301,1319.264 C296.901,1323.664 294.301,1328.664 293.401,1330.264 C292.601,1331.964 290.801,1335.064 289.401,1337.264 C288.101,1339.464 286.501,1342.364 285.901,1343.564 C284.501,1346.764 278.701,1353.964 271.901,1360.964 C262.501,1370.664 256.201,1385.664 252.901,1406.164 C251.201,1416.664 255.201,1423.664 265.201,1427.964 C266.801,1428.664 270.901,1430.664 274.201,1432.464 C299.901,1445.764 319.501,1454.964 327.901,1457.764 C329.301,1458.164 333.801,1459.964 337.901,1461.764 C342.001,1463.464 346.801,1465.264 348.401,1465.664 C350.101,1466.064 352.301,1466.964 353.401,1467.564 C354.501,1468.164 357.701,1469.364 360.401,1470.264 C370.301,1473.464 378.501,1475.964 382.401,1476.964 C384.601,1477.564 387.301,1478.464 388.401,1479.064 C390.601,1480.164 406.101,1484.364 413.401,1485.764 C416.201,1486.264 420.201,1487.364 422.401,1488.164 C424.601,1488.964 428.201,1489.664 430.301,1489.764 C432.501,1489.764 436.501,1490.364 439.301,1491.164 C445.901,1493.064 460.601,1495.364 474.401,1496.764 C486.701,1497.964 509.101,1500.564 512.901,1501.164 C517.701,1502.064 547.501,1500.864 559.901,1499.264 Z M227.701,1371.064 C239.401,1365.564 247.001,1357.964 253.401,1345.264 C254.201,1343.664 255.401,1341.364 256.101,1340.264 C259.901,1334.364 276.301,1309.564 279.401,1305.264 C281.401,1302.564 283.701,1299.164 284.701,1297.764 C287.101,1294.264 297.601,1280.664 299.801,1278.264 C306.101,1271.364 304.401,1268.364 294.101,1268.164 C288.401,1268.064 269.101,1270.964 267.001,1272.164 C263.601,1274.264 253.901,1264.764 253.901,1259.264 C253.901,1251.564 260.001,1247.464 271.901,1247.264 C281.201,1247.064 287.701,1246.064 289.701,1244.464 C291.701,1242.864 291.101,1235.564 288.501,1230.164 C285.701,1224.364 281.401,1215.164 276.601,1204.764 C270.701,1191.764 264.501,1189.564 255.301,1197.364 C244.201,1206.564 241.001,1207.364 233.701,1202.764 C226.501,1198.264 227.101,1192.364 234.901,1188.764 C236.301,1188.164 238.801,1186.864 240.401,1185.864 C259.401,1174.964 261.601,1170.264 255.201,1153.264 C243.401,1121.464 242.501,1120.264 232.801,1121.164 C220.801,1122.264 208.901,1130.264 208.901,1137.164 C208.901,1140.264 204.701,1150.064 201.701,1153.964 C191.801,1166.864 178.001,1159.164 183.401,1143.764 C185.801,1136.964 185.401,1133.964 182.201,1133.164 C180.601,1132.864 176.801,1131.964 173.601,1131.164 C166.201,1129.364 162.401,1129.364 156.801,1131.164 C154.401,1131.964 151.301,1132.864 149.801,1133.164 C145.701,1134.064 138.301,1142.164 136.301,1147.964 C133.501,1156.364 135.301,1186.564 139.401,1200.764 C140.201,1203.264 141.101,1211.564 141.401,1219.264 C142.501,1241.664 147.401,1262.964 155.601,1280.764 C158.501,1287.164 160.001,1290.364 167.401,1307.264 C168.701,1310.164 171.201,1315.564 181.401,1337.264 C193.501,1363.064 195.001,1365.564 201.601,1371.164 C206.801,1375.464 218.401,1375.464 227.701,1371.064 Z M658.101,1018.364 C661.801,1016.764 667.001,1011.264 673.401,1002.264 C675.601,999.164 680.801,992.264 684.901,986.964 C693.501,975.864 697.901,969.764 701.301,964.764 C702.601,962.864 705.101,959.764 706.801,957.864 C711.001,953.164 710.801,951.964 704.201,945.164 C699.501,940.364 689.301,928.864 679.101,916.764 C665.701,901.064 663.901,900.264 643.501,901.164 C621.501,902.064 618.301,903.564 611.901,916.164 C606.901,925.964 604.601,936.864 605.401,946.564 C606.001,953.664 606.901,956.564 611.001,965.264 C612.001,967.464 612.901,969.664 612.901,970.164 C612.901,970.664 617.701,978.264 623.601,987.164 C644.301,1018.164 648.801,1022.264 658.101,1018.364 Z M494.501,971.164 C497.201,969.764 500.101,967.964 500.901,967.164 C501.701,966.364 505.101,963.664 508.401,961.264 C536.601,940.664 561.401,920.864 566.401,915.164 C567.001,914.464 571.201,910.964 575.901,907.264 C580.601,903.664 586.101,899.264 588.201,897.464 C590.301,895.764 593.301,893.564 594.801,892.664 C596.401,891.764 603.201,885.364 610.001,878.464 C625.501,862.864 627.601,861.764 640.801,861.764 C646.301,861.764 651.901,862.164 653.201,862.664 C654.601,863.264 660.101,864.164 665.601,864.664 C685.601,866.864 702.301,862.864 714.601,853.064 C716.901,851.164 722.601,847.664 727.301,845.264 C739.701,838.964 741.801,837.164 742.501,831.764 C743.301,825.964 741.001,822.864 733.401,819.264 C723.001,814.364 717.401,815.164 700.301,823.864 C692.301,827.964 685.501,831.564 685.301,831.964 C685.101,832.264 683.401,832.964 681.601,833.264 C679.901,833.664 677.901,834.364 677.401,834.864 C676.801,835.264 674.201,836.364 671.501,837.264 C659.701,841.264 656.901,828.864 666.501,814.764 C669.201,810.864 672.101,806.464 672.901,804.964 C673.701,803.464 675.801,800.264 677.501,797.764 C679.201,795.264 683.601,787.964 687.301,781.464 C691.001,774.964 695.301,767.764 696.901,765.464 C700.201,760.364 709.901,740.764 709.901,738.964 C709.901,738.264 710.801,735.864 712.001,733.564 C715.601,726.564 714.501,716.564 709.601,712.164 C704.501,707.464 699.001,707.364 694.501,712.064 C688.401,718.364 680.601,728.164 675.101,736.264 C670.301,743.364 663.801,755.364 647.801,786.564 C643.801,794.364 640.201,800.764 639.801,800.764 C639.401,800.764 638.701,801.664 638.401,802.764 C635.501,811.864 621.101,805.364 623.301,795.964 C623.701,794.464 624.401,791.564 624.801,789.464 C625.301,787.364 626.301,784.964 627.101,783.964 C628.401,782.364 630.201,778.864 637.401,763.264 C641.401,754.764 644.601,746.264 645.401,742.264 C646.401,737.264 649.901,723.564 651.501,718.664 C654.301,709.564 652.901,704.664 645.601,697.064 C640.901,692.164 638.301,691.764 633.001,694.964 C625.701,699.464 624.701,701.664 617.901,727.764 C617.201,730.264 616.101,733.664 615.401,735.264 C614.601,736.964 612.801,742.364 611.401,747.264 C609.901,752.264 608.101,757.664 607.401,759.364 C606.601,761.164 605.701,764.264 605.301,766.364 C603.401,776.864 593.201,786.064 586.501,783.464 C581.501,781.564 578.901,765.164 582.801,760.464 C585.601,756.964 588.901,744.164 590.001,731.964 C591.501,714.464 590.901,690.964 588.901,689.764 C586.301,688.064 582.801,688.664 578.501,691.464 C571.301,696.164 569.801,698.864 566.801,712.664 C565.301,719.564 562.901,728.664 561.501,732.764 C560.001,736.864 558.001,744.664 556.901,750.064 C555.901,755.364 554.801,760.164 554.401,760.664 C553.801,761.764 551.901,781.064 550.401,802.264 C548.801,824.064 542.401,837.064 530.001,843.764 C525.601,846.164 514.001,853.564 512.901,854.764 C512.601,855.064 509.901,857.164 506.901,859.464 C500.501,864.264 498.001,866.564 484.401,879.264 C478.901,884.364 472.601,890.064 470.401,891.764 C466.801,894.664 464.801,896.064 456.001,901.964 C454.601,902.964 452.301,904.264 450.901,904.764 C440.701,909.164 431.501,914.764 430.601,917.164 C430.001,918.564 480.601,969.964 485.001,972.364 C488.301,974.164 488.901,974.164 494.501,971.164 Z M746.701,936.064 C759.601,927.464 776.101,919.764 785.701,917.664 C788.101,917.164 791.001,916.164 792.201,915.264 C793.401,914.464 795.501,913.764 796.901,913.764 C798.401,913.764 803.701,912.864 808.801,911.764 C827.301,907.864 850.001,906.764 883.601,908.264 C897.601,908.864 900.001,908.764 902.001,907.364 C903.301,906.464 905.101,905.764 906.001,905.764 C913.101,905.764 917.801,886.364 917.901,857.164 C917.901,844.564 921.501,817.264 924.401,807.464 C925.201,804.664 925.901,801.064 925.901,799.564 C925.901,797.964 926.401,795.664 927.001,794.564 C929.101,790.664 933.101,769.964 934.401,756.264 C934.801,752.464 935.701,744.964 936.501,739.764 C937.401,733.664 937.901,721.764 937.901,706.264 L937.901,682.264 L935.001,676.264 C931.601,668.964 925.601,662.964 918.301,659.264 C910.601,655.364 895.801,655.864 885.901,660.464 C882.301,662.064 876.701,664.664 873.401,666.164 C870.101,667.664 865.601,669.664 863.401,670.764 C861.201,671.764 854.901,674.764 849.401,677.264 C837.701,682.664 822.501,690.264 815.401,694.264 C812.701,695.764 807.501,698.664 803.901,700.664 C800.301,702.664 796.101,704.964 794.401,705.864 C788.801,709.064 784.401,711.464 777.401,715.164 C773.601,717.164 769.701,719.264 768.901,719.764 C768.101,720.264 765.401,721.464 762.901,722.564 C749.201,728.564 744.701,731.064 739.501,735.864 C736.301,738.764 733.301,742.064 732.801,743.164 C732.301,744.364 731.501,745.964 731.001,746.764 C730.401,747.564 728.901,750.964 727.401,754.264 C726.001,757.564 724.401,760.964 723.901,761.764 C721.101,766.364 711.901,785.664 711.901,786.964 C711.901,790.364 715.001,792.064 719.701,791.364 C728.601,790.164 749.301,795.364 757.501,800.964 C770.401,809.664 774.301,825.064 766.601,836.264 C763.401,840.864 747.201,858.464 741.901,863.064 C729.501,873.764 710.301,884.764 703.901,884.764 C701.801,884.764 691.001,888.664 689.201,890.064 C686.501,892.064 687.801,896.064 693.201,901.664 C699.901,908.964 705.301,915.264 719.401,932.564 C729.401,944.864 732.801,945.364 746.701,936.064 Z M238.001,906.764 C241.001,905.064 244.101,903.264 244.901,902.764 C245.701,902.264 251.101,899.564 256.901,896.764 C262.701,893.964 268.101,891.264 268.901,890.764 C270.201,889.964 274.201,888.064 291.901,879.964 C298.301,876.964 304.701,874.764 309.701,873.664 C312.101,873.164 316.401,872.064 319.201,871.264 C340.701,864.864 380.001,877.264 401.901,897.464 C405.301,900.564 412.201,903.764 415.601,903.764 C419.401,903.764 425.501,899.564 444.101,884.264 C447.401,881.564 451.901,877.964 454.101,876.264 C456.301,874.664 461.901,870.164 466.701,866.364 C471.501,862.664 477.801,857.964 480.701,856.064 C486.601,852.064 487.301,849.464 483.801,844.964 C482.701,843.464 479.801,839.564 477.301,836.264 C474.901,832.964 472.301,829.564 471.601,828.764 C470.901,827.964 469.001,825.264 467.601,822.764 C466.101,820.264 463.301,816.264 461.401,813.764 C459.601,811.264 455.701,805.864 452.801,801.764 C442.601,787.264 441.401,786.364 428.101,783.264 C412.701,779.664 405.101,776.864 387.401,768.064 C377.401,763.064 376.601,762.664 369.001,757.864 C366.001,755.964 361.101,753.064 358.001,751.464 C354.901,749.864 351.701,747.964 350.901,747.264 C350.101,746.664 348.101,745.364 346.401,744.564 C344.801,743.764 341.801,742.164 339.901,741.064 C328.901,734.764 308.101,724.764 306.001,724.764 C305.401,724.764 303.801,724.164 302.601,723.364 C300.401,721.964 288.901,718.164 279.401,715.664 C247.701,707.364 220.501,727.764 217.401,762.264 C217.001,766.664 216.201,771.064 215.701,772.064 C215.201,773.064 213.501,778.964 212.001,785.064 C206.101,808.464 207.401,836.964 215.501,862.864 C216.301,865.464 216.901,868.364 216.901,869.464 C216.901,870.564 217.801,874.764 218.801,878.864 C219.801,882.964 221.201,889.464 221.901,893.264 C224.301,907.964 225.701,911.064 229.401,910.464 C231.201,910.164 235.101,908.564 238.001,906.764 Z M519.201,829.064 C523.701,824.764 528.901,817.064 528.901,814.864 C528.901,812.264 524.301,803.464 521.301,800.264 C517.401,796.064 502.701,778.164 494.601,767.564 C487.501,758.264 479.001,749.764 475.501,748.464 C471.301,746.864 463.701,748.764 460.201,752.264 C452.801,759.664 455.401,767.164 476.801,799.764 C499.201,834.164 507.701,840.064 519.201,829.064 Z M531.301,780.564 C536.301,770.264 537.801,761.964 538.001,743.664 C538.201,725.364 538.201,725.164 532.001,719.064 C530.401,717.364 527.301,715.264 525.201,714.364 C523.101,713.464 520.101,712.064 518.601,711.264 C514.101,708.964 512.301,709.464 508.701,714.064 C501.601,723.064 499.401,729.464 500.901,736.364 C502.101,741.464 502.801,743.064 513.901,764.764 C517.701,772.164 520.901,778.764 520.901,779.364 C520.901,781.364 525.001,785.764 526.901,785.764 C528.001,785.764 529.601,783.964 531.301,780.564 Z M435.701,758.764 C437.501,757.664 440.201,754.664 441.701,751.964 C444.601,746.864 451.601,739.564 459.501,733.264 C462.201,731.064 467.601,726.364 471.401,722.764 C478.201,716.464 489.801,706.164 496.901,700.064 C504.101,693.964 509.001,692.464 519.601,692.964 C526.901,693.364 529.701,693.964 531.701,695.464 C540.801,702.164 549.101,700.064 554.801,689.764 C561.601,677.464 563.801,674.764 571.401,669.564 C581.401,662.664 589.301,661.864 614.401,664.764 C618.801,665.264 627.701,665.664 634.201,665.664 C652.001,665.764 658.501,668.364 670.501,679.964 C678.401,687.664 681.301,688.264 690.601,683.664 C701.001,678.664 714.201,678.764 722.001,683.964 C728.801,688.564 735.201,695.664 737.201,701.064 C738.701,705.064 742.501,705.364 747.101,701.564 C749.501,699.664 752.101,697.864 752.901,697.464 C754.901,696.564 760.701,692.964 766.301,689.064 C768.901,687.264 771.201,685.764 771.501,685.764 C771.801,685.764 777.801,681.964 784.801,677.264 C791.901,672.564 798.101,668.764 798.701,668.764 C799.201,668.764 800.201,668.164 800.801,667.364 C801.401,666.564 803.401,665.764 805.201,665.464 C822.301,662.964 835.801,657.964 847.801,649.964 C856.001,644.564 860.901,642.164 866.501,640.864 C875.001,638.764 876.301,636.764 884.001,611.764 C885.101,608.164 886.501,603.664 887.101,601.764 C888.301,598.064 888.401,597.464 891.801,580.764 C893.701,571.264 893.901,566.964 893.901,535.264 C893.801,490.264 891.701,473.364 882.701,446.264 C880.701,440.264 873.801,424.564 871.901,421.764 C871.301,420.964 870.301,419.164 869.601,417.764 C864.801,407.964 847.801,388.864 840.701,385.164 C839.101,384.364 837.901,383.364 837.901,382.864 C837.901,382.364 836.701,381.464 835.201,380.864 C833.601,380.264 831.701,379.364 830.901,378.864 C827.401,376.664 821.101,373.964 817.901,373.264 C816.001,372.864 812.801,371.664 810.901,370.664 C809.001,369.564 806.101,368.764 804.401,368.764 C802.701,368.764 800.901,368.364 800.301,367.764 C799.201,366.664 795.601,365.864 759.601,358.664 C749.001,356.564 719.601,356.064 703.401,357.764 C686.401,359.464 669.201,361.864 664.401,363.164 C661.701,363.964 657.401,364.864 654.901,365.264 C652.401,365.664 649.301,366.564 647.901,367.264 C646.501,367.964 643.801,368.764 641.901,369.164 C640.001,369.464 637.101,370.364 635.401,371.164 C633.801,371.964 629.001,373.864 624.901,375.364 C620.801,376.864 616.801,378.564 616.101,379.064 C614.801,380.064 612.201,381.564 603.801,386.064 C601.001,387.564 597.201,389.964 595.501,391.264 C593.801,392.664 591.101,394.764 589.601,395.964 C581.101,402.764 564.101,422.464 560.901,429.264 C559.901,431.464 557.901,435.264 556.501,437.764 C550.401,448.864 540.901,477.964 540.901,485.664 C540.901,487.164 540.501,488.764 540.001,489.364 C537.301,492.064 532.201,566.764 533.701,581.364 C533.901,584.164 533.401,587.164 531.801,590.864 C526.101,604.664 518.401,605.664 511.201,593.764 C509.001,590.264 509.001,590.164 509.901,541.764 C510.601,504.064 511.101,491.564 512.301,485.764 C513.201,481.664 513.901,476.664 513.901,474.664 C513.901,472.664 514.601,469.064 515.501,466.664 C516.501,463.764 517.101,458.964 517.101,452.764 C517.101,426.964 498.701,412.364 461.401,408.664 C455.401,408.064 446.801,407.164 442.401,406.664 C414.801,403.564 384.801,402.264 372.501,403.664 C356.601,405.464 338.601,409.064 330.901,411.764 C318.201,416.364 311.301,419.064 310.501,419.864 C309.901,420.364 308.901,420.764 308.101,420.764 C304.801,420.764 277.001,438.664 261.801,450.464 C249.101,460.464 242.601,465.564 240.901,467.064 C240.101,467.764 237.501,469.864 235.201,471.764 C230.601,475.364 227.101,480.364 225.801,485.264 C225.401,486.964 224.101,490.964 222.901,494.264 C219.101,504.964 218.701,506.164 216.701,512.764 C210.101,535.064 208.501,553.064 209.901,593.264 C210.501,609.764 211.201,623.964 211.401,624.764 C211.701,625.564 212.301,632.164 212.801,639.464 C213.301,646.964 214.401,654.064 215.201,655.964 C216.101,657.764 217.001,660.964 217.401,663.164 C217.701,665.264 218.601,668.364 219.301,670.164 C220.001,671.864 221.701,676.664 222.901,680.764 C226.501,692.364 228.101,692.764 244.201,687.264 C258.401,682.464 265.301,681.364 276.201,682.064 C290.501,682.964 307.201,689.364 316.801,697.564 C319.201,699.564 323.701,703.464 326.801,706.164 C333.101,711.564 348.701,722.064 357.501,726.864 C360.801,728.664 364.001,730.464 364.701,731.064 C366.201,732.164 371.401,735.164 374.901,736.764 C376.301,737.464 378.101,738.364 378.901,738.864 C379.701,739.364 381.501,740.264 382.901,740.864 C384.301,741.464 386.101,742.364 386.901,742.864 C388.501,743.764 390.601,744.864 397.401,747.864 C399.601,748.864 404.101,750.864 407.401,752.364 C425.301,760.464 430.901,761.664 435.701,758.764 Z M547.901,390.164 C549.801,388.964 553.101,386.464 555.101,384.564 C557.201,382.764 561.101,379.664 563.701,377.764 C572.801,371.364 573.101,370.164 573.401,337.564 C573.601,321.964 573.901,299.264 574.101,287.064 L574.401,264.964 L571.201,260.564 C567.001,254.864 531.401,201.564 526.901,194.264 C519.901,182.864 518.901,181.264 517.401,178.264 C516.501,176.664 514.001,172.164 511.801,168.264 C509.601,164.464 507.001,159.364 505.901,156.964 C504.101,153.064 503.601,152.664 500.701,152.964 C497.701,153.264 497.401,153.664 494.901,160.864 C486.701,184.664 483.601,188.864 452.901,218.364 C425.501,244.664 421.201,248.464 412.501,253.464 C401.601,259.764 398.101,268.064 399.701,283.664 C400.401,290.064 401.401,307.664 402.001,322.764 C404.301,386.464 401.701,381.764 435.401,381.764 C476.201,381.764 517.501,386.064 525.801,391.264 C530.501,394.064 542.701,393.564 547.901,390.164 Z M342.901,389.064 C345.401,388.764 348.601,387.864 350.101,387.164 C351.601,386.364 353.601,385.764 354.601,385.764 C358.101,385.764 372.701,377.564 376.901,373.264 C384.201,365.864 384.801,362.164 382.901,334.264 C380.901,303.864 379.701,257.064 380.801,252.964 C382.201,247.964 388.601,240.664 394.101,237.764 C401.001,234.264 404.101,232.464 409.101,229.064 C411.601,227.364 414.701,225.664 415.801,225.264 C417.001,224.964 417.901,224.264 417.901,223.864 C417.901,223.464 420.301,221.364 423.101,219.264 C448.401,200.164 466.601,178.064 473.901,157.264 C479.301,141.964 478.101,111.264 471.501,97.764 C470.801,96.364 469.101,93.064 467.801,90.264 C465.501,85.464 457.501,74.664 455.701,73.964 C455.201,73.764 452.501,71.664 449.601,69.464 C440.301,62.064 432.401,58.064 417.901,53.564 C413.501,52.164 389.701,52.164 384.401,53.564 C379.001,55.064 371.101,57.664 367.401,59.264 C365.801,59.964 363.301,61.064 361.901,61.664 C360.501,62.264 358.701,63.164 357.901,63.664 C357.101,64.264 355.201,65.264 353.701,65.964 C351.301,67.164 340.701,73.364 336.901,75.764 C334.601,77.264 318.701,84.464 315.901,85.264 C314.501,85.664 294.301,86.364 270.901,86.764 C247.501,87.264 225.901,87.964 222.901,88.464 C212.001,90.264 196.001,97.064 189.401,102.764 C179.001,111.664 165.901,112.464 150.901,105.064 C142.101,100.664 137.701,100.364 133.001,103.864 C128.901,106.864 128.701,108.064 129.801,122.564 C130.801,135.864 130.101,141.164 127.201,143.264 C124.801,145.164 119.501,145.164 117.901,143.264 C117.301,142.464 115.701,141.564 114.601,141.164 C113.401,140.864 109.901,138.964 106.801,137.164 C99.601,132.764 96.601,132.864 92.301,137.164 C85.101,144.364 88.401,151.364 104.501,162.764 C117.801,172.264 121.901,176.964 121.901,183.264 C121.901,190.464 119.101,193.664 112.301,194.364 C106.901,194.864 107.001,194.964 95.601,187.164 C79.701,176.264 74.101,174.964 66.101,180.264 C56.801,186.364 57.701,193.164 69.401,204.264 C79.401,213.864 81.901,218.164 81.901,225.864 C81.901,233.064 80.701,234.164 72.501,234.164 C64.801,234.164 60.101,231.664 51.501,222.764 C41.201,212.264 32.101,214.964 31.101,228.864 C30.601,236.064 32.901,242.464 37.201,245.864 C43.401,250.764 55.501,256.364 61.901,257.364 C64.401,257.764 66.901,258.364 67.501,258.864 C68.101,259.364 70.801,260.164 73.601,260.764 C82.601,262.764 84.401,266.764 82.201,280.064 C80.701,288.964 79.201,289.364 68.501,284.264 C64.501,282.364 60.501,280.764 59.701,280.764 C58.801,280.764 57.601,280.164 57.001,279.364 C56.301,278.564 54.501,277.664 53.001,277.264 C51.501,276.964 48.101,275.564 45.401,274.264 C33.201,268.064 22.001,273.664 20.801,286.564 C20.001,295.564 21.601,315.264 23.401,318.864 C24.201,320.364 24.901,322.764 24.901,324.164 C24.901,325.564 26.001,328.764 27.401,331.364 C28.801,333.964 29.901,336.664 29.901,337.264 C29.901,337.964 30.501,339.064 31.301,339.664 C32.101,340.364 33.101,342.164 33.401,343.764 C33.701,345.264 34.901,347.364 36.001,348.364 C37.001,349.264 37.901,350.464 37.901,350.864 C37.901,352.464 44.001,360.664 47.601,363.764 C57.701,372.664 71.701,371.664 80.401,361.564 C83.601,357.764 89.901,346.164 89.901,343.964 C89.901,340.864 98.701,326.664 103.201,322.464 C115.701,310.764 120.901,309.864 177.401,309.564 C202.201,309.464 224.701,309.464 227.401,309.464 C238.501,309.764 262.501,307.864 266.001,306.364 C274.901,302.664 285.901,291.364 285.901,285.864 C286.001,284.464 286.601,282.164 287.401,280.764 C288.201,279.364 288.901,277.164 288.901,275.764 C289.001,270.764 294.101,262.264 296.901,262.564 C299.901,262.864 304.401,267.864 306.001,272.764 C306.601,274.664 307.401,276.764 307.801,277.264 C308.101,277.864 308.401,283.864 308.501,290.764 C308.501,297.664 308.901,321.264 309.401,343.264 C310.401,393.664 309.301,391.064 328.401,390.164 C333.901,389.964 340.401,389.464 342.901,389.064 Z M619.401,349.164 C623.301,347.764 628.601,345.964 631.301,345.264 C634.001,344.464 636.701,343.364 637.201,342.864 C637.801,342.264 639.301,341.764 640.601,341.764 C641.801,341.764 645.001,340.964 647.601,339.864 C650.201,338.864 654.801,337.664 657.801,337.264 C663.801,336.464 671.001,333.564 672.901,331.164 C674.001,329.964 674.301,319.664 674.401,281.964 C674.501,228.564 675.401,218.164 680.001,214.664 C681.301,213.664 682.701,212.764 683.101,212.764 C685.401,212.664 692.201,226.964 693.301,234.064 C694.401,241.564 700.601,253.764 703.201,253.764 C703.701,253.764 705.801,255.064 707.801,256.664 C717.801,264.564 745.101,272.464 775.401,276.264 C802.501,279.664 854.001,276.564 864.601,270.964 C866.601,269.864 880.201,267.564 884.701,267.564 C890.401,267.564 891.601,274.664 887.401,283.264 C883.801,290.564 883.901,301.564 887.601,308.764 C893.201,319.464 905.201,328.764 913.701,328.764 C917.901,328.764 933.501,324.264 934.401,322.664 C934.801,322.164 935.901,321.764 937.001,321.764 C938.101,321.764 940.901,320.864 943.201,319.864 C945.601,318.764 948.701,317.564 950.101,317.264 C951.601,316.864 953.301,315.964 954.001,315.164 C954.601,314.364 955.601,313.764 956.201,313.764 C959.801,313.764 974.601,300.664 979.801,292.864 C987.701,281.064 988.801,279.064 989.901,274.164 C992.401,263.764 988.201,256.164 978.301,253.264 C970.801,251.064 967.601,251.664 942.601,259.864 C933.301,262.964 920.301,262.564 916.701,259.064 C913.101,255.564 913.201,254.164 917.201,252.264 C921.701,250.064 925.101,248.064 925.801,247.064 C927.101,245.364 932.801,241.864 942.401,237.164 C958.201,229.264 963.601,225.264 976.501,212.164 C987.001,201.264 990.001,195.364 987.501,190.064 C984.401,183.164 978.001,177.764 973.101,177.764 C969.001,177.764 956.601,184.364 954.501,187.664 C948.501,197.164 939.601,200.964 929.601,198.264 C920.901,195.964 916.901,192.164 916.901,186.464 C916.901,180.164 919.501,177.564 937.901,165.764 C964.201,148.864 972.901,140.364 969.101,135.264 C967.301,132.764 960.101,128.864 956.901,128.664 C945.801,127.964 944.401,128.464 936.401,135.064 C923.501,145.564 922.501,146.064 915.901,146.064 C898.301,146.064 899.101,133.664 917.501,122.264 C924.701,117.864 929.201,113.464 931.701,108.364 C938.701,94.364 923.201,92.464 905.801,105.164 C896.001,112.464 884.001,112.964 882.301,106.264 C881.501,103.064 882.601,100.464 888.501,91.664 C893.701,83.764 893.801,82.864 889.901,79.964 C885.301,76.564 872.001,78.364 861.601,83.964 C856.101,86.864 846.401,87.464 835.301,85.564 C829.301,84.564 818.301,82.864 810.901,81.764 C803.501,80.664 796.101,79.264 794.401,78.764 C792.801,78.264 788.901,77.564 785.901,77.264 C782.901,76.864 778.401,75.964 775.901,75.264 C773.401,74.464 767.901,73.364 763.501,72.764 C759.201,72.264 755.201,71.464 754.501,71.064 C753.901,70.664 745.101,69.964 734.901,69.664 C715.001,68.864 711.501,68.064 701.401,61.664 C680.401,48.364 677.601,46.764 662.901,39.964 C657.301,37.264 647.101,34.164 639.901,32.864 C636.901,32.364 633.101,31.464 631.601,30.864 C627.301,29.164 601.801,29.464 597.201,31.164 C595.101,31.964 591.801,32.864 589.901,33.164 C578.601,35.164 561.901,47.964 546.001,66.764 C542.001,71.464 532.901,87.064 532.901,89.164 C532.901,89.964 532.501,90.864 532.001,91.164 C531.501,91.464 529.901,95.364 528.501,99.864 C525.301,109.664 524.701,135.964 527.401,143.764 C528.201,146.064 528.901,148.964 528.901,150.064 C528.901,151.164 529.801,153.864 530.801,156.164 C531.901,158.464 534.101,163.264 535.801,167.064 C543.001,183.164 556.201,198.364 592.501,232.664 C605.301,244.864 608.301,250.864 604.401,256.464 C599.001,264.164 594.001,293.964 595.901,307.364 C596.401,311.564 596.901,317.664 596.901,320.964 C596.901,324.264 597.301,328.664 597.801,330.664 C598.401,332.664 599.301,337.164 600.001,340.764 C602.201,352.064 606.401,353.964 619.401,349.164 Z" id="Shape" fill="#000000" fill-rule="nonzero" transform="translate(533.502551, 1145.898645) rotate(180.000000) translate(-533.502551, -1145.898645) "></path>
    </g>
</svg>
