<?xml version="1.0" encoding="UTF-8"?>
<svg viewBox="-11.39 -11.39 4412.28 1487.28" version="1.1" xmlns:xlink="http://www.w3.org/1999/xlink" xmlns="http://www.w3.org/2000/svg">
<g id="SVG_KeyMap" fill="none" fill-rule="evenodd">
  <g stroke="#000000" stroke-width="5" fill-opacity="1.0">
    <rect id="K_000" x="6.195" y="6.195" width="212.61" height="212.61" rx="21.261" fill="#777777" />
    <rect id="L_000" x="18.585" y="18.585" width="187.83" height="161.25375" rx="24.78" stroke-opacity="0.3" fill="#FFFFFF" fill-opacity="0.4" />
    <rect id="K_001" x="343.695" y="6.195" width="212.61" height="212.61" rx="21.261" fill="#aaaaaa" />
    <rect id="L_001" x="356.085" y="18.585" width="187.83" height="161.25375" rx="24.78" stroke-opacity="0.3" fill="#FFFFFF" fill-opacity="0.4" />
    <rect id="K_002" x="568.695" y="6.195" width="212.61" height="212.61" rx="21.261" fill="#aaaaaa" />
    <rect id="L_002" x="581.085" y="18.585" width="187.83" height="161.25375" rx="24.78" stroke-opacity="0.3" fill="#FFFFFF" fill-opacity="0.4" />
    <rect id="K_003" x="793.695" y="6.195" width="212.61" height="212.61" rx="21.261" fill="#aaaaaa" />
    <rect id="L_003" x="806.085" y="18.585" width="187.83" height="161.25375" rx="24.78" stroke-opacity="0.3" fill="#FFFFFF" fill-opacity="0.4" />
    <rect id="K_004" x="1018.695" y="6.195" width="212.61" height="212.61" rx="21.261" fill="#aaaaaa" />
    <rect id="L_004" x="1031.085" y="18.585" width="187.83" height="161.25375" rx="24.78" stroke-opacity="0.3" fill="#FFFFFF" fill-opacity="0.4" />
    <rect id="K_005" x="1299.945" y="6.195" width="212.61" height="212.61" rx="21.261" fill="#aaaaaa" />
    <rect id="L_005" x="1312.335" y="18.585" width="187.83" height="161.25375" rx="24.78" stroke-opacity="0.3" fill="#FFFFFF" fill-opacity="0.4" />
    <rect id="K_006" x="1524.945" y="6.195" width="212.61" height="212.61" rx="21.261" fill="#aaaaaa" />
    <rect id="L_006" x="1537.335" y="18.585" width="187.83" height="161.25375" rx="24.78" stroke-opacity="0.3" fill="#FFFFFF" fill-opacity="0.4" />
    <rect id="K_007" x="1749.945" y="6.195" width="212.61" height="212.61" rx="21.261" fill="#aaaaaa" />
    <rect id="L_007" x="1762.335" y="18.585" width="187.83" height="161.25375" rx="24.78" stroke-opacity="0.3" fill="#FFFFFF" fill-opacity="0.4" />
    <rect id="K_008" x="1974.945" y="6.195" width="212.61" height="212.61" rx="21.261" fill="#aaaaaa" />
    <rect id="L_008" x="1987.335" y="18.585" width="187.83" height="161.25375" rx="24.78" stroke-opacity="0.3" fill="#FFFFFF" fill-opacity="0.4" />
    <rect id="K_009" x="2256.195" y="6.195" width="212.61" height="212.61" rx="21.261" fill="#aaaaaa" />
    <rect id="L_009" x="2268.585" y="18.585" width="187.83" height="161.25375" rx="24.78" stroke-opacity="0.3" fill="#FFFFFF" fill-opacity="0.4" />
    <rect id="K_010" x="2481.195" y="6.195" width="212.61" height="212.61" rx="21.261" fill="#aaaaaa" />
    <rect id="L_010" x="2493.585" y="18.585" width="187.83" height="161.25375" rx="24.78" stroke-opacity="0.3" fill="#FFFFFF" fill-opacity="0.4" />
    <rect id="K_011" x="2706.195" y="6.195" width="212.61" height="212.61" rx="21.261" fill="#aaaaaa" />
    <rect id="L_011" x="2718.585" y="18.585" width="187.83" height="161.25375" rx="24.78" stroke-opacity="0.3" fill="#FFFFFF" fill-opacity="0.4" />
    <rect id="K_012" x="2931.195" y="6.195" width="212.61" height="212.61" rx="21.261" fill="#aaaaaa" />
    <rect id="L_012" x="2943.585" y="18.585" width="187.83" height="161.25375" rx="24.78" stroke-opacity="0.3" fill="#FFFFFF" fill-opacity="0.4" />
    <rect id="K_013" x="3212.445" y="6.195" width="212.61" height="212.61" rx="21.261" fill="#aaaaaa" />
    <rect id="L_013" x="3224.835" y="18.585" width="187.83" height="161.25375" rx="24.78" stroke-opacity="0.3" fill="#FFFFFF" fill-opacity="0.4" />
    <rect id="K_014" x="3437.445" y="6.195" width="212.61" height="212.61" rx="21.261" fill="#aaaaaa" />
    <rect id="L_014" x="3449.835" y="18.585" width="187.83" height="161.25375" rx="24.78" stroke-opacity="0.3" fill="#FFFFFF" fill-opacity="0.4" />
    <rect id="K_015" x="3662.445" y="6.195" width="212.61" height="212.61" rx="21.261" fill="#aaaaaa" />
    <rect id="L_015" x="3674.835" y="18.585" width="187.83" height="161.25375" rx="24.78" stroke-opacity="0.3" fill="#FFFFFF" fill-opacity="0.4" />
    <rect id="K_016" x="3887.445" y="6.195" width="212.61" height="212.61" rx="21.261" fill="#aaaaaa" />
    <rect id="L_016" x="3899.835" y="18.585" width="187.83" height="161.25375" rx="24.78" stroke-opacity="0.3" fill="#FFFFFF" fill-opacity="0.4" />
    <ellipse id="K_017" cx="4275" cy="112.5" rx="106.305" ry="106.305" fill="#aaaaaa" />
    <ellipse id="L_017" cx="4275" cy="112.5" rx="93.915" ry="93.915" stroke-opacity="0.3" fill="#FFFFFF" fill-opacity="0.4" />
    <rect id="K_018" x="6.195" y="287.445" width="212.61" height="212.61" rx="21.261" fill="#cccccc" />
    <rect id="L_018" x="18.585" y="299.835" width="187.83" height="161.25375" rx="24.78" stroke-opacity="0.3" fill="#FFFFFF" fill-opacity="0.4" />
    <rect id="K_019" x="231.195" y="287.445" width="212.61" height="212.61" rx="21.261" fill="#cccccc" />
    <rect id="L_019" x="243.585" y="299.835" width="187.83" height="161.25375" rx="24.78" stroke-opacity="0.3" fill="#FFFFFF" fill-opacity="0.4" />
    <rect id="K_020" x="456.195" y="287.445" width="212.61" height="212.61" rx="21.261" fill="#cccccc" />
    <rect id="L_020" x="468.585" y="299.835" width="187.83" height="161.25375" rx="24.78" stroke-opacity="0.3" fill="#FFFFFF" fill-opacity="0.4" />
    <rect id="K_021" x="681.195" y="287.445" width="212.61" height="212.61" rx="21.261" fill="#cccccc" />
    <rect id="L_021" x="693.585" y="299.835" width="187.83" height="161.25375" rx="24.78" stroke-opacity="0.3" fill="#FFFFFF" fill-opacity="0.4" />
    <rect id="K_022" x="906.195" y="287.445" width="212.61" height="212.61" rx="21.261" fill="#cccccc" />
    <rect id="L_022" x="918.585" y="299.835" width="187.83" height="161.25375" rx="24.78" stroke-opacity="0.3" fill="#FFFFFF" fill-opacity="0.4" />
    <rect id="K_023" x="1131.195" y="287.445" width="212.61" height="212.61" rx="21.261" fill="#cccccc" />
    <rect id="L_023" x="1143.585" y="299.835" width="187.83" height="161.25375" rx="24.78" stroke-opacity="0.3" fill="#FFFFFF" fill-opacity="0.4" />
    <rect id="K_024" x="1356.195" y="287.445" width="212.61" height="212.61" rx="21.261" fill="#cccccc" />
    <rect id="L_024" x="1368.585" y="299.835" width="187.83" height="161.25375" rx="24.78" stroke-opacity="0.3" fill="#FFFFFF" fill-opacity="0.4" />
    <rect id="K_025" x="1581.195" y="287.445" width="212.61" height="212.61" rx="21.261" fill="#cccccc" />
    <rect id="L_025" x="1593.585" y="299.835" width="187.83" height="161.25375" rx="24.78" stroke-opacity="0.3" fill="#FFFFFF" fill-opacity="0.4" />
    <rect id="K_026" x="1806.195" y="287.445" width="212.61" height="212.61" rx="21.261" fill="#cccccc" />
    <rect id="L_026" x="1818.585" y="299.835" width="187.83" height="161.25375" rx="24.78" stroke-opacity="0.3" fill="#FFFFFF" fill-opacity="0.4" />
    <rect id="K_027" x="2031.195" y="287.445" width="212.61" height="212.61" rx="21.261" fill="#cccccc" />
    <rect id="L_027" x="2043.585" y="299.835" width="187.83" height="161.25375" rx="24.78" stroke-opacity="0.3" fill="#FFFFFF" fill-opacity="0.4" />
    <rect id="K_028" x="2256.195" y="287.445" width="212.61" height="212.61" rx="21.261" fill="#cccccc" />
    <rect id="L_028" x="2268.585" y="299.835" width="187.83" height="161.25375" rx="24.78" stroke-opacity="0.3" fill="#FFFFFF" fill-opacity="0.4" />
    <rect id="K_029" x="2481.195" y="287.445" width="212.61" height="212.61" rx="21.261" fill="#cccccc" />
    <rect id="L_029" x="2493.585" y="299.835" width="187.83" height="161.25375" rx="24.78" stroke-opacity="0.3" fill="#FFFFFF" fill-opacity="0.4" />
    <rect id="K_030" x="2706.195" y="287.445" width="212.61" height="212.61" rx="21.261" fill="#cccccc" />
    <rect id="L_030" x="2718.585" y="299.835" width="187.83" height="161.25375" rx="24.78" stroke-opacity="0.3" fill="#FFFFFF" fill-opacity="0.4" />
    <rect id="K_031" x="2931.195" y="287.445" width="437.61" height="212.61" rx="21.261" fill="#aaaaaa" />
    <rect id="L_031" x="2943.585" y="299.835" width="412.83" height="161.25375" rx="24.78" stroke-opacity="0.3" fill="#FFFFFF" fill-opacity="0.4" />
    <rect id="K_033" x="3493.695" y="287.445" width="212.61" height="212.61" rx="21.261" fill="#aaaaaa" />
    <rect id="L_033" x="3506.085" y="299.835" width="187.83" height="161.25375" rx="24.78" stroke-opacity="0.3" fill="#FFFFFF" fill-opacity="0.4" />
    <rect id="K_034" x="3718.695" y="287.445" width="212.61" height="212.61" rx="21.261" fill="#cccccc" />
    <rect id="L_034" x="3731.085" y="299.835" width="187.83" height="161.25375" rx="24.78" stroke-opacity="0.3" fill="#FFFFFF" fill-opacity="0.4" />
    <rect id="K_035" x="3943.695" y="287.445" width="212.61" height="212.61" rx="21.261" fill="#cccccc" />
    <rect id="L_035" x="3956.085" y="299.835" width="187.83" height="161.25375" rx="24.78" stroke-opacity="0.3" fill="#FFFFFF" fill-opacity="0.4" />
    <rect id="K_036" x="4168.695" y="287.445" width="212.61" height="212.61" rx="21.261" fill="#cccccc" />
    <rect id="L_036" x="4181.085" y="299.835" width="187.83" height="161.25375" rx="24.78" stroke-opacity="0.3" fill="#FFFFFF" fill-opacity="0.4" />
    <rect id="K_037" x="6.195" y="512.445" width="325.11" height="212.61" rx="21.261" fill="#aaaaaa" />
    <rect id="L_037" x="18.585" y="524.835" width="300.33" height="161.25375" rx="24.78" stroke-opacity="0.3" fill="#FFFFFF" fill-opacity="0.4" />
    <rect id="K_038" x="343.695" y="512.445" width="212.61" height="212.61" rx="21.261" fill="#cccccc" />
    <rect id="L_038" x="356.085" y="524.835" width="187.83" height="161.25375" rx="24.78" stroke-opacity="0.3" fill="#FFFFFF" fill-opacity="0.4" />
    <rect id="K_039" x="568.695" y="512.445" width="212.61" height="212.61" rx="21.261" fill="#cccccc" />
    <rect id="L_039" x="581.085" y="524.835" width="187.83" height="161.25375" rx="24.78" stroke-opacity="0.3" fill="#FFFFFF" fill-opacity="0.4" />
    <rect id="K_040" x="793.695" y="512.445" width="212.61" height="212.61" rx="21.261" fill="#cccccc" />
    <rect id="L_040" x="806.085" y="524.835" width="187.83" height="161.25375" rx="24.78" stroke-opacity="0.3" fill="#FFFFFF" fill-opacity="0.4" />
    <rect id="K_041" x="1018.695" y="512.445" width="212.61" height="212.61" rx="21.261" fill="#cccccc" />
    <rect id="L_041" x="1031.085" y="524.835" width="187.83" height="161.25375" rx="24.78" stroke-opacity="0.3" fill="#FFFFFF" fill-opacity="0.4" />
    <rect id="K_042" x="1243.695" y="512.445" width="212.61" height="212.61" rx="21.261" fill="#cccccc" />
    <rect id="L_042" x="1256.085" y="524.835" width="187.83" height="161.25375" rx="24.78" stroke-opacity="0.3" fill="#FFFFFF" fill-opacity="0.4" />
    <rect id="K_043" x="1468.695" y="512.445" width="212.61" height="212.61" rx="21.261" fill="#cccccc" />
    <rect id="L_043" x="1481.085" y="524.835" width="187.83" height="161.25375" rx="24.78" stroke-opacity="0.3" fill="#FFFFFF" fill-opacity="0.4" />
    <rect id="K_044" x="1693.695" y="512.445" width="212.61" height="212.61" rx="21.261" fill="#cccccc" />
    <rect id="L_044" x="1706.085" y="524.835" width="187.83" height="161.25375" rx="24.78" stroke-opacity="0.3" fill="#FFFFFF" fill-opacity="0.4" />
    <rect id="K_045" x="1918.695" y="512.445" width="212.61" height="212.61" rx="21.261" fill="#cccccc" />
    <rect id="L_045" x="1931.085" y="524.835" width="187.83" height="161.25375" rx="24.78" stroke-opacity="0.3" fill="#FFFFFF" fill-opacity="0.4" />
    <rect id="K_046" x="2143.695" y="512.445" width="212.61" height="212.61" rx="21.261" fill="#cccccc" />
    <rect id="L_046" x="2156.085" y="524.835" width="187.83" height="161.25375" rx="24.78" stroke-opacity="0.3" fill="#FFFFFF" fill-opacity="0.4" />
    <rect id="K_047" x="2368.695" y="512.445" width="212.61" height="212.61" rx="21.261" fill="#cccccc" />
    <rect id="L_047" x="2381.085" y="524.835" width="187.83" height="161.25375" rx="24.78" stroke-opacity="0.3" fill="#FFFFFF" fill-opacity="0.4" />
    <rect id="K_048" x="2593.695" y="512.445" width="212.61" height="212.61" rx="21.261" fill="#cccccc" />
    <rect id="L_048" x="2606.085" y="524.835" width="187.83" height="161.25375" rx="24.78" stroke-opacity="0.3" fill="#FFFFFF" fill-opacity="0.4" />
    <rect id="K_049" x="2818.695" y="512.445" width="212.61" height="212.61" rx="21.261" fill="#cccccc" />
    <rect id="L_049" x="2831.085" y="524.835" width="187.83" height="161.25375" rx="24.78" stroke-opacity="0.3" fill="#FFFFFF" fill-opacity="0.4" />
    <rect id="K_050" x="3043.695" y="512.445" width="325.11" height="212.61" rx="21.261" fill="#cccccc" />
    <rect id="L_050" x="3056.085" y="524.835" width="300.33" height="161.25375" rx="24.78" stroke-opacity="0.3" fill="#FFFFFF" fill-opacity="0.4" />
    <rect id="K_052" x="3493.695" y="512.445" width="212.61" height="212.61" rx="21.261" fill="#cccccc" />
    <rect id="L_052" x="3506.085" y="524.835" width="187.83" height="161.25375" rx="24.78" stroke-opacity="0.3" fill="#FFFFFF" fill-opacity="0.4" />
    <rect id="K_053" x="3718.695" y="512.445" width="212.61" height="212.61" rx="21.261" fill="#cccccc" />
    <rect id="L_053" x="3731.085" y="524.835" width="187.83" height="161.25375" rx="24.78" stroke-opacity="0.3" fill="#FFFFFF" fill-opacity="0.4" />
    <rect id="K_054" x="3943.695" y="512.445" width="212.61" height="212.61" rx="21.261" fill="#cccccc" />
    <rect id="L_054" x="3956.085" y="524.835" width="187.83" height="161.25375" rx="24.78" stroke-opacity="0.3" fill="#FFFFFF" fill-opacity="0.4" />
    <rect id="K_055" x="4168.695" y="512.445" width="212.61" height="437.61" rx="21.261" fill="#cccccc" />
    <rect id="L_055" x="4181.085" y="524.835" width="187.83" height="386.25375" rx="24.78" stroke-opacity="0.3" fill="#FFFFFF" fill-opacity="0.4" />
    <rect id="K_056" x="6.195" y="737.445" width="381.36" height="212.61" rx="21.261" fill="#aaaaaa" />
    <rect id="L_056" x="18.585" y="749.835" width="356.58" height="161.25375" rx="24.78" stroke-opacity="0.3" fill="#FFFFFF" fill-opacity="0.4" />
    <rect id="K_057" x="399.945" y="737.445" width="212.61" height="212.61" rx="21.261" fill="#cccccc" />
    <rect id="L_057" x="412.335" y="749.835" width="187.83" height="161.25375" rx="24.78" stroke-opacity="0.3" fill="#FFFFFF" fill-opacity="0.4" />
    <rect id="K_058" x="624.945" y="737.445" width="212.61" height="212.61" rx="21.261" fill="#cccccc" />
    <rect id="L_058" x="637.335" y="749.835" width="187.83" height="161.25375" rx="24.78" stroke-opacity="0.3" fill="#FFFFFF" fill-opacity="0.4" />
    <rect id="K_059" x="849.945" y="737.445" width="212.61" height="212.61" rx="21.261" fill="#cccccc" />
    <rect id="L_059" x="862.335" y="749.835" width="187.83" height="161.25375" rx="24.78" stroke-opacity="0.3" fill="#FFFFFF" fill-opacity="0.4" />
    <rect id="K_060" x="1074.945" y="737.445" width="212.61" height="212.61" rx="21.261" fill="#cccccc" />
    <rect id="L_060" x="1087.335" y="749.835" width="187.83" height="161.25375" rx="24.78" stroke-opacity="0.3" fill="#FFFFFF" fill-opacity="0.4" />
    <rect id="K_061" x="1299.945" y="737.445" width="212.61" height="212.61" rx="21.261" fill="#cccccc" />
    <rect id="L_061" x="1312.335" y="749.835" width="187.83" height="161.25375" rx="24.78" stroke-opacity="0.3" fill="#FFFFFF" fill-opacity="0.4" />
    <rect id="K_062" x="1524.945" y="737.445" width="212.61" height="212.61" rx="21.261" fill="#cccccc" />
    <rect id="L_062" x="1537.335" y="749.835" width="187.83" height="161.25375" rx="24.78" stroke-opacity="0.3" fill="#FFFFFF" fill-opacity="0.4" />
    <rect id="K_063" x="1749.945" y="737.445" width="212.61" height="212.61" rx="21.261" fill="#cccccc" />
    <rect id="L_063" x="1762.335" y="749.835" width="187.83" height="161.25375" rx="24.78" stroke-opacity="0.3" fill="#FFFFFF" fill-opacity="0.4" />
    <rect id="K_064" x="1974.945" y="737.445" width="212.61" height="212.61" rx="21.261" fill="#cccccc" />
    <rect id="L_064" x="1987.335" y="749.835" width="187.83" height="161.25375" rx="24.78" stroke-opacity="0.3" fill="#FFFFFF" fill-opacity="0.4" />
    <rect id="K_065" x="2199.945" y="737.445" width="212.61" height="212.61" rx="21.261" fill="#cccccc" />
    <rect id="L_065" x="2212.335" y="749.835" width="187.83" height="161.25375" rx="24.78" stroke-opacity="0.3" fill="#FFFFFF" fill-opacity="0.4" />
    <rect id="K_066" x="2424.945" y="737.445" width="212.61" height="212.61" rx="21.261" fill="#cccccc" />
    <rect id="L_066" x="2437.335" y="749.835" width="187.83" height="161.25375" rx="24.78" stroke-opacity="0.3" fill="#FFFFFF" fill-opacity="0.4" />
    <rect id="K_067" x="2649.945" y="737.445" width="212.61" height="212.61" rx="21.261" fill="#cccccc" />
    <rect id="L_067" x="2662.335" y="749.835" width="187.83" height="161.25375" rx="24.78" stroke-opacity="0.3" fill="#FFFFFF" fill-opacity="0.4" />
    <rect id="K_068" x="2874.945" y="737.445" width="493.86" height="212.61" rx="21.261" fill="#777777" />
    <rect id="L_068" x="2887.335" y="749.835" width="469.08" height="161.25375" rx="24.78" stroke-opacity="0.3" fill="#FFFFFF" fill-opacity="0.4" />
    <rect id="K_070" x="3493.695" y="737.445" width="212.61" height="212.61" rx="21.261" fill="#cccccc" />
    <rect id="L_070" x="3506.085" y="749.835" width="187.83" height="161.25375" rx="24.78" stroke-opacity="0.3" fill="#FFFFFF" fill-opacity="0.4" />
    <rect id="K_071" x="3718.695" y="737.445" width="212.61" height="212.61" rx="21.261" fill="#cccccc" />
    <rect id="L_071" x="3731.085" y="749.835" width="187.83" height="161.25375" rx="24.78" stroke-opacity="0.3" fill="#FFFFFF" fill-opacity="0.4" />
    <rect id="K_072" x="3943.695" y="737.445" width="212.61" height="212.61" rx="21.261" fill="#cccccc" />
    <rect id="L_072" x="3956.085" y="749.835" width="187.83" height="161.25375" rx="24.78" stroke-opacity="0.3" fill="#FFFFFF" fill-opacity="0.4" />
    <rect id="K_073" x="6.195" y="962.445" width="493.86" height="212.61" rx="21.261" fill="#aaaaaa" />
    <rect id="L_073" x="18.585" y="974.835" width="469.08" height="161.25375" rx="24.78" stroke-opacity="0.3" fill="#FFFFFF" fill-opacity="0.4" />
    <rect id="K_074" x="512.445" y="962.445" width="212.61" height="212.61" rx="21.261" fill="#cccccc" />
    <rect id="L_074" x="524.835" y="974.835" width="187.83" height="161.25375" rx="24.78" stroke-opacity="0.3" fill="#FFFFFF" fill-opacity="0.4" />
    <rect id="K_075" x="737.445" y="962.445" width="212.61" height="212.61" rx="21.261" fill="#cccccc" />
    <rect id="L_075" x="749.835" y="974.835" width="187.83" height="161.25375" rx="24.78" stroke-opacity="0.3" fill="#FFFFFF" fill-opacity="0.4" />
    <rect id="K_076" x="962.445" y="962.445" width="212.61" height="212.61" rx="21.261" fill="#cccccc" />
    <rect id="L_076" x="974.835" y="974.835" width="187.83" height="161.25375" rx="24.78" stroke-opacity="0.3" fill="#FFFFFF" fill-opacity="0.4" />
    <rect id="K_077" x="1187.445" y="962.445" width="212.61" height="212.61" rx="21.261" fill="#cccccc" />
    <rect id="L_077" x="1199.835" y="974.835" width="187.83" height="161.25375" rx="24.78" stroke-opacity="0.3" fill="#FFFFFF" fill-opacity="0.4" />
    <rect id="K_078" x="1412.445" y="962.445" width="212.61" height="212.61" rx="21.261" fill="#cccccc" />
    <rect id="L_078" x="1424.835" y="974.835" width="187.83" height="161.25375" rx="24.78" stroke-opacity="0.3" fill="#FFFFFF" fill-opacity="0.4" />
    <rect id="K_079" x="1637.445" y="962.445" width="212.61" height="212.61" rx="21.261" fill="#cccccc" />
    <rect id="L_079" x="1649.835" y="974.835" width="187.83" height="161.25375" rx="24.78" stroke-opacity="0.3" fill="#FFFFFF" fill-opacity="0.4" />
    <rect id="K_080" x="1862.445" y="962.445" width="212.61" height="212.61" rx="21.261" fill="#cccccc" />
    <rect id="L_080" x="1874.835" y="974.835" width="187.83" height="161.25375" rx="24.78" stroke-opacity="0.3" fill="#FFFFFF" fill-opacity="0.4" />
    <rect id="K_081" x="2087.445" y="962.445" width="212.61" height="212.61" rx="21.261" fill="#cccccc" />
    <rect id="L_081" x="2099.835" y="974.835" width="187.83" height="161.25375" rx="24.78" stroke-opacity="0.3" fill="#FFFFFF" fill-opacity="0.4" />
    <rect id="K_082" x="2312.445" y="962.445" width="212.61" height="212.61" rx="21.261" fill="#cccccc" />
    <rect id="L_082" x="2324.835" y="974.835" width="187.83" height="161.25375" rx="24.78" stroke-opacity="0.3" fill="#FFFFFF" fill-opacity="0.4" />
    <rect id="K_083" x="2537.445" y="962.445" width="212.61" height="212.61" rx="21.261" fill="#cccccc" />
    <rect id="L_083" x="2549.835" y="974.835" width="187.83" height="161.25375" rx="24.78" stroke-opacity="0.3" fill="#FFFFFF" fill-opacity="0.4" />
    <rect id="K_084" x="2762.445" y="962.445" width="381.36" height="212.61" rx="21.261" fill="#aaaaaa" />
    <rect id="L_084" x="2774.835" y="974.835" width="356.58" height="161.25375" rx="24.78" stroke-opacity="0.3" fill="#FFFFFF" fill-opacity="0.4" />
    <rect id="K_085" x="3493.695" y="962.445" width="212.61" height="212.61" rx="21.261" fill="#cccccc" />
    <rect id="L_085" x="3506.085" y="974.835" width="187.83" height="161.25375" rx="24.78" stroke-opacity="0.3" fill="#FFFFFF" fill-opacity="0.4" />
    <rect id="K_086" x="3718.695" y="962.445" width="212.61" height="212.61" rx="21.261" fill="#cccccc" />
    <rect id="L_086" x="3731.085" y="974.835" width="187.83" height="161.25375" rx="24.78" stroke-opacity="0.3" fill="#FFFFFF" fill-opacity="0.4" />
    <rect id="K_087" x="3943.695" y="962.445" width="212.61" height="212.61" rx="21.261" fill="#cccccc" />
    <rect id="L_087" x="3956.085" y="974.835" width="187.83" height="161.25375" rx="24.78" stroke-opacity="0.3" fill="#FFFFFF" fill-opacity="0.4" />
    <rect id="K_088" x="4168.695" y="962.445" width="212.61" height="437.61" rx="21.261" fill="#777777" />
    <rect id="L_088" x="4181.085" y="974.835" width="187.83" height="386.25375" rx="24.78" stroke-opacity="0.3" fill="#FFFFFF" fill-opacity="0.4" />
    <rect id="K_089" x="3212.445" y="1018.695" width="212.61" height="212.61" rx="21.261" fill="#777777" />
    <rect id="L_089" x="3224.835" y="1031.085" width="187.83" height="161.25375" rx="24.78" stroke-opacity="0.3" fill="#FFFFFF" fill-opacity="0.4" />
    <rect id="K_090" x="6.195" y="1187.445" width="268.86" height="212.61" rx="21.261" fill="#aaaaaa" />
    <rect id="L_090" x="18.585" y="1199.835" width="244.08" height="161.25375" rx="24.78" stroke-opacity="0.3" fill="#FFFFFF" fill-opacity="0.4" />
    <rect id="K_091" x="287.445" y="1187.445" width="268.86" height="212.61" rx="21.261" fill="#aaaaaa" />
    <rect id="L_091" x="299.835" y="1199.835" width="244.08" height="161.25375" rx="24.78" stroke-opacity="0.3" fill="#FFFFFF" fill-opacity="0.4" />
    <rect id="K_092" x="568.695" y="1187.445" width="268.86" height="212.61" rx="21.261" fill="#aaaaaa" />
    <rect id="L_092" x="581.085" y="1199.835" width="244.08" height="161.25375" rx="24.78" stroke-opacity="0.3" fill="#FFFFFF" fill-opacity="0.4" />
    <rect id="K_093" x="849.945" y="1187.445" width="1393.86" height="212.61" rx="21.261" fill="#cccccc" />
    <rect id="L_093" x="862.335" y="1199.835" width="1369.08" height="161.25375" rx="24.78" stroke-opacity="0.3" fill="#FFFFFF" fill-opacity="0.4" />
    <rect id="K_094" x="2256.195" y="1187.445" width="212.61" height="212.61" rx="21.261" fill="#aaaaaa" />
    <rect id="L_094" x="2268.585" y="1199.835" width="187.83" height="161.25375" rx="24.78" stroke-opacity="0.3" fill="#FFFFFF" fill-opacity="0.4" />
    <rect id="K_095" x="2481.195" y="1187.445" width="212.61" height="212.61" rx="21.261" fill="#aaaaaa" />
    <rect id="L_095" x="2493.585" y="1199.835" width="187.83" height="161.25375" rx="24.78" stroke-opacity="0.3" fill="#FFFFFF" fill-opacity="0.4" />
    <rect id="K_096" x="2706.195" y="1187.445" width="212.61" height="212.61" rx="21.261" fill="#aaaaaa" />
    <rect id="L_096" x="2718.585" y="1199.835" width="187.83" height="161.25375" rx="24.78" stroke-opacity="0.3" fill="#FFFFFF" fill-opacity="0.4" />
    <rect id="K_097" x="3718.695" y="1187.445" width="212.61" height="212.61" rx="21.261" fill="#cccccc" />
    <rect id="L_097" x="3731.085" y="1199.835" width="187.83" height="161.25375" rx="24.78" stroke-opacity="0.3" fill="#FFFFFF" fill-opacity="0.4" />
    <rect id="K_098" x="3943.695" y="1187.445" width="212.61" height="212.61" rx="21.261" fill="#cccccc" />
    <rect id="L_098" x="3956.085" y="1199.835" width="187.83" height="161.25375" rx="24.78" stroke-opacity="0.3" fill="#FFFFFF" fill-opacity="0.4" />
    <rect id="K_099" x="2987.445" y="1243.695" width="212.61" height="212.61" rx="21.261" fill="#777777" />
    <rect id="L_099" x="2999.835" y="1256.085" width="187.83" height="161.25375" rx="24.78" stroke-opacity="0.3" fill="#FFFFFF" fill-opacity="0.4" />
    <rect id="K_100" x="3212.445" y="1243.695" width="212.61" height="212.61" rx="21.261" fill="#777777" />
    <rect id="L_100" x="3224.835" y="1256.085" width="187.83" height="161.25375" rx="24.78" stroke-opacity="0.3" fill="#FFFFFF" fill-opacity="0.4" />
    <rect id="K_101" x="3437.445" y="1243.695" width="212.61" height="212.61" rx="21.261" fill="#777777" />
    <rect id="L_101" x="3449.835" y="1256.085" width="187.83" height="161.25375" rx="24.78" stroke-opacity="0.3" fill="#FFFFFF" fill-opacity="0.4" />
  </g>
  <g font-family="Helvetica" font-size="48" font-weight="normal">
    <text id="T_000" x="112.5" y="106.305" fill="#000000" text-anchor="middle" alignment-baseline="middle">Esc</text>
    <text id="T_001" x="450" y="106.305" fill="#000000" text-anchor="middle" alignment-baseline="middle">F1</text>
    <text id="T_002" x="675" y="106.305" fill="#000000" text-anchor="middle" alignment-baseline="middle">F2</text>
    <text id="T_003" x="900" y="106.305" fill="#000000" text-anchor="middle" alignment-baseline="middle">F3</text>
    <text id="T_004" x="1125" y="106.305" fill="#000000" text-anchor="middle" alignment-baseline="middle">F4</text>
    <text id="T_005" x="1406.25" y="106.305" fill="#000000" text-anchor="middle" alignment-baseline="middle">F5</text>
    <text id="T_006" x="1631.25" y="106.305" fill="#000000" text-anchor="middle" alignment-baseline="middle">F6</text>
    <text id="T_007" x="1856.25" y="106.305" fill="#000000" text-anchor="middle" alignment-baseline="middle">F7</text>
    <text id="T_008" x="2081.25" y="106.305" fill="#000000" text-anchor="middle" alignment-baseline="middle">F8</text>
    <text id="T_009" x="2362.5" y="106.305" fill="#000000" text-anchor="middle" alignment-baseline="middle">F9</text>
    <text id="T_010" x="2587.5" y="106.305" fill="#000000" text-anchor="middle" alignment-baseline="middle">F10</text>
    <text id="T_011" x="2812.5" y="106.305" fill="#000000" text-anchor="middle" alignment-baseline="middle">F11</text>
    <text id="T_012" x="3037.5" y="106.305" fill="#000000" text-anchor="middle" alignment-baseline="middle">F12</text>
    <text id="T_013" x="3318.75" y="106.305" fill="#000000" text-anchor="middle" alignment-baseline="middle">PS</text>
    <text id="T_014" x="3543.75" y="106.305" fill="#000000" text-anchor="middle" alignment-baseline="middle">Del</text>
    <text id="T_015" x="3768.75" y="106.305" fill="#000000" text-anchor="middle" alignment-baseline="middle">Home</text>
    <text id="T_016" x="3993.75" y="106.305" fill="#000000" text-anchor="middle" alignment-baseline="middle">End</text>
    <text id="T_017" x="4275" y="112.5" fill="#000000" text-anchor="middle" alignment-baseline="middle">Mute</text>
    <text transform="rotate(-45.0, 4190.625, 28.125)" font-size="36" id="T_CCW_017" x="4190.625" y="28.125" fill="#000000" text-anchor="middle" alignment-baseline="middle" font-weight="bold">Vol-</text>
    <text transform="rotate(45.0, 4359.375, 28.125)" font-size="36" id="T_CW_017" x="4359.375" y="28.125" fill="#000000" text-anchor="middle" alignment-baseline="middle" font-weight="bold">Vol+</text>
    <text id="T_018" x="112.5" y="387.555" fill="#000000" text-anchor="middle" alignment-baseline="middle">~`</text>
    <text id="T_019" x="337.5" y="387.555" fill="#000000" text-anchor="middle" alignment-baseline="middle">1!</text>
    <text id="T_020" x="562.5" y="387.555" fill="#000000" text-anchor="middle" alignment-baseline="middle">2@</text>
    <text id="T_021" x="787.5" y="387.555" fill="#000000" text-anchor="middle" alignment-baseline="middle">3#</text>
    <text id="T_022" x="1012.5" y="387.555" fill="#000000" text-anchor="middle" alignment-baseline="middle">4$</text>
    <text id="T_023" x="1237.5" y="387.555" fill="#000000" text-anchor="middle" alignment-baseline="middle">5%</text>
    <text id="T_024" x="1462.5" y="387.555" fill="#000000" text-anchor="middle" alignment-baseline="middle">6^</text>
    <text id="T_025" x="1687.5" y="387.555" fill="#000000" text-anchor="middle" alignment-baseline="middle">7&amp;</text>
    <text id="T_026" x="1912.5" y="387.555" fill="#000000" text-anchor="middle" alignment-baseline="middle">8*</text>
    <text id="T_027" x="2137.5" y="387.555" fill="#000000" text-anchor="middle" alignment-baseline="middle">9(</text>
    <text id="T_028" x="2362.5" y="387.555" fill="#000000" text-anchor="middle" alignment-baseline="middle">0)</text>
    <text id="T_029" x="2587.5" y="387.555" fill="#000000" text-anchor="middle" alignment-baseline="middle">-_</text>
    <text id="T_030" x="2812.5" y="387.555" fill="#000000" text-anchor="middle" alignment-baseline="middle">=+</text>
    <text id="T_031" x="3150" y="387.555" fill="#000000" text-anchor="middle" alignment-baseline="middle">Backsp</text>
    <text id="T_032" x="3431.25" y="387.555" fill="#000000" text-anchor="middle" alignment-baseline="middle"></text>
    <text id="T_033" x="3600" y="387.555" fill="#000000" text-anchor="middle" alignment-baseline="middle">Num-L</text>
    <text id="T_034" x="3825" y="387.555" fill="#000000" text-anchor="middle" alignment-baseline="middle">/</text>
    <text id="T_035" x="4050" y="387.555" fill="#000000" text-anchor="middle" alignment-baseline="middle">*</text>
    <text id="T_036" x="4275" y="387.555" fill="#000000" text-anchor="middle" alignment-baseline="middle">-</text>
    <text id="T_037" x="168.75" y="612.555" fill="#000000" text-anchor="middle" alignment-baseline="middle">Tab</text>
    <text id="T_038" x="450" y="612.555" fill="#000000" text-anchor="middle" alignment-baseline="middle">Q</text>
    <text id="T_039" x="675" y="612.555" fill="#000000" text-anchor="middle" alignment-baseline="middle">W</text>
    <text id="T_040" x="900" y="612.555" fill="#000000" text-anchor="middle" alignment-baseline="middle">E</text>
    <text id="T_041" x="1125" y="612.555" fill="#000000" text-anchor="middle" alignment-baseline="middle">R</text>
    <text id="T_042" x="1350" y="612.555" fill="#000000" text-anchor="middle" alignment-baseline="middle">T</text>
    <text id="T_043" x="1575" y="612.555" fill="#000000" text-anchor="middle" alignment-baseline="middle">Y</text>
    <text id="T_044" x="1800" y="612.555" fill="#000000" text-anchor="middle" alignment-baseline="middle">U</text>
    <text id="T_045" x="2025" y="612.555" fill="#000000" text-anchor="middle" alignment-baseline="middle">I</text>
    <text id="T_046" x="2250" y="612.555" fill="#000000" text-anchor="middle" alignment-baseline="middle">O</text>
    <text id="T_047" x="2475" y="612.555" fill="#000000" text-anchor="middle" alignment-baseline="middle">P</text>
    <text id="T_048" x="2700" y="612.555" fill="#000000" text-anchor="middle" alignment-baseline="middle">[{</text>
    <text id="T_049" x="2925" y="612.555" fill="#000000" text-anchor="middle" alignment-baseline="middle">]}</text>
    <text id="T_050" x="3206.25" y="612.555" fill="#000000" text-anchor="middle" alignment-baseline="middle">\|</text>
    <text id="T_051" x="3431.25" y="612.555" fill="#000000" text-anchor="middle" alignment-baseline="middle"></text>
    <text id="T_052" x="3600" y="612.555" fill="#000000" text-anchor="middle" alignment-baseline="middle">7</text>
    <text id="T_053" x="3825" y="612.555" fill="#000000" text-anchor="middle" alignment-baseline="middle">8</text>
    <text id="T_054" x="4050" y="612.555" fill="#000000" text-anchor="middle" alignment-baseline="middle">9</text>
    <text id="T_055" x="4275" y="725.055" fill="#000000" text-anchor="middle" alignment-baseline="middle">+</text>
    <text id="T_056" x="196.875" y="837.555" fill="#000000" text-anchor="middle" alignment-baseline="middle">Caps-L</text>
    <text id="T_057" x="506.25" y="837.555" fill="#000000" text-anchor="middle" alignment-baseline="middle">A</text>
    <text id="T_058" x="731.25" y="837.555" fill="#000000" text-anchor="middle" alignment-baseline="middle">S</text>
    <text id="T_059" x="956.25" y="837.555" fill="#000000" text-anchor="middle" alignment-baseline="middle">D</text>
    <text id="T_060" x="1181.25" y="837.555" fill="#000000" text-anchor="middle" alignment-baseline="middle">F</text>
    <text id="T_061" x="1406.25" y="837.555" fill="#000000" text-anchor="middle" alignment-baseline="middle">G</text>
    <text id="T_062" x="1631.25" y="837.555" fill="#000000" text-anchor="middle" alignment-baseline="middle">H</text>
    <text id="T_063" x="1856.25" y="837.555" fill="#000000" text-anchor="middle" alignment-baseline="middle">J</text>
    <text id="T_064" x="2081.25" y="837.555" fill="#000000" text-anchor="middle" alignment-baseline="middle">K</text>
    <text id="T_065" x="2306.25" y="837.555" fill="#000000" text-anchor="middle" alignment-baseline="middle">L</text>
    <text id="T_066" x="2531.25" y="837.555" fill="#000000" text-anchor="middle" alignment-baseline="middle">;:</text>
    <text id="T_067" x="2756.25" y="837.555" fill="#000000" text-anchor="middle" alignment-baseline="middle">'"</text>
    <text id="T_068" x="3121.875" y="837.555" fill="#000000" text-anchor="middle" alignment-baseline="middle">Enter</text>
    <text id="T_069" x="3431.25" y="837.555" fill="#000000" text-anchor="middle" alignment-baseline="middle"></text>
    <text id="T_070" x="3600" y="837.555" fill="#000000" text-anchor="middle" alignment-baseline="middle">4</text>
    <text id="T_071" x="3825" y="837.555" fill="#000000" text-anchor="middle" alignment-baseline="middle">5</text>
    <text id="T_072" x="4050" y="837.555" fill="#000000" text-anchor="middle" alignment-baseline="middle">6</text>
    <text id="T_073" x="253.125" y="1062.555" fill="#000000" text-anchor="middle" alignment-baseline="middle">Shift</text>
    <text id="T_074" x="618.75" y="1062.555" fill="#000000" text-anchor="middle" alignment-baseline="middle">Z</text>
    <text id="T_075" x="843.75" y="1062.555" fill="#000000" text-anchor="middle" alignment-baseline="middle">X</text>
    <text id="T_076" x="1068.75" y="1062.555" fill="#000000" text-anchor="middle" alignment-baseline="middle">C</text>
    <text id="T_077" x="1293.75" y="1062.555" fill="#000000" text-anchor="middle" alignment-baseline="middle">V</text>
    <text id="T_078" x="1518.75" y="1062.555" fill="#000000" text-anchor="middle" alignment-baseline="middle">B</text>
    <text id="T_079" x="1743.75" y="1062.555" fill="#000000" text-anchor="middle" alignment-baseline="middle">N</text>
    <text id="T_080" x="1968.75" y="1062.555" fill="#000000" text-anchor="middle" alignment-baseline="middle">M</text>
    <text id="T_081" x="2193.75" y="1062.555" fill="#000000" text-anchor="middle" alignment-baseline="middle">,&lt;</text>
    <text id="T_082" x="2418.75" y="1062.555" fill="#000000" text-anchor="middle" alignment-baseline="middle">.&gt;</text>
    <text id="T_083" x="2643.75" y="1062.555" fill="#000000" text-anchor="middle" alignment-baseline="middle">/?</text>
    <text id="T_084" x="2953.125" y="1062.555" fill="#000000" text-anchor="middle" alignment-baseline="middle">Shift</text>
    <text id="T_085" x="3600" y="1062.555" fill="#000000" text-anchor="middle" alignment-baseline="middle">1</text>
    <text id="T_086" x="3825" y="1062.555" fill="#000000" text-anchor="middle" alignment-baseline="middle">2</text>
    <text id="T_087" x="4050" y="1062.555" fill="#000000" text-anchor="middle" alignment-baseline="middle">3</text>
    <text id="T_088" x="4275" y="1175.055" fill="#000000" text-anchor="middle" alignment-baseline="middle">Enter</text>
    <text id="T_089" x="3318.75" y="1118.805" fill="#000000" text-anchor="middle" alignment-baseline="middle">⇧</text>
    <text id="T_090" x="140.625" y="1287.555" fill="#000000" text-anchor="middle" alignment-baseline="middle">Ctrl</text>
    <text id="T_091" x="421.875" y="1287.555" fill="#000000" text-anchor="middle" alignment-baseline="middle">Win</text>
    <text id="T_092" x="703.125" y="1287.555" fill="#000000" text-anchor="middle" alignment-baseline="middle">Alt</text>
    <text id="T_093" x="1546.875" y="1287.555" fill="#000000" text-anchor="middle" alignment-baseline="middle">Space</text>
    <text id="T_094" x="2362.5" y="1287.555" fill="#000000" text-anchor="middle" alignment-baseline="middle">Alt</text>
    <text id="T_095" x="2587.5" y="1287.555" fill="#000000" text-anchor="middle" alignment-baseline="middle">Fn</text>
    <text id="T_096" x="2812.5" y="1287.555" fill="#000000" text-anchor="middle" alignment-baseline="middle">Ctrl</text>
    <text id="T_097" x="3825" y="1287.555" fill="#000000" text-anchor="middle" alignment-baseline="middle">0</text>
    <text id="T_098" x="4050" y="1287.555" fill="#000000" text-anchor="middle" alignment-baseline="middle">.</text>
    <text id="T_099" x="3093.75" y="1343.805" fill="#000000" text-anchor="middle" alignment-baseline="middle">⇦</text>
    <text id="T_100" x="3318.75" y="1343.805" fill="#000000" text-anchor="middle" alignment-baseline="middle">⇩</text>
    <text id="T_101" x="3543.75" y="1343.805" fill="#000000" text-anchor="middle" alignment-baseline="middle">⇨</text>
  </g>
</g>
</svg>
