<svg xmlns="http://www.w3.org/2000/svg" width="1282" height="357" xmlns:v="https://vecta.io/nano">
    <path d="M132.699 344v-9.033c-10.579 0-17.578-.488-20.996-1.465-7.65-1.79-13.428-4.72-17.334-8.789s-5.859-8.464-5.859-13.184c0-6.673 7.568-19.368 22.705-38.086h0l50.537-61.768 48.34 71.533c9.115 13.346 14.811 22.461 17.09 27.344 1.139 2.279 1.709 4.883 1.709 7.813 0 4.232-1.872 7.813-5.615 10.742s-12.044 4.883-24.902 5.859h0V344H359.75v-9.033c-8.789-.977-16.398-3.866-22.827-8.667s-17.212-18.433-32.349-40.894h0l-91.309-135.498 62.744-75.684c16.927-20.345 27.507-32.471 31.738-36.377 6.673-6.022 12.939-10.132 18.799-12.329s13.59-3.377 23.193-3.54h0v-9.033H227.914v9.033c9.928 0 17.253 1.058 21.973 3.174s8.341 5.046 10.864 8.789 3.784 7.813 3.784 12.207c0 8.789-8.952 24.17-26.855 46.143h0l-34.912 42.725-41.016-62.5-16.846-25.391c-1.139-2.604-1.709-5.697-1.709-9.277 0-4.557 1.872-8.341 5.615-11.353s10.335-4.517 19.775-4.517h0 8.301v-9.033H12.582v9.033c7.487 1.139 13.346 2.848 17.578 5.127S38.705 33.209 43.1 38.58c1.953 2.279 9.847 13.59 23.682 33.936h0l84.229 123.779-65.674 80.078c-19.531 23.763-34.749 39.388-45.654 46.875-8.301 5.697-19.694 9.603-34.18 11.719h0V344h127.197zm430.176 7.568c26.855 0 50.334-4.354 70.435-13.062s39.429-22.746 57.983-42.114h0v-28.564c-19.206 22.298-37.476 38.005-54.81 47.119s-36.418 13.672-57.251 13.672c-25.391 0-46.061-6.226-62.012-18.677s-27.669-30.843-35.156-55.176-11.23-51.31-11.23-80.933c0-30.111 5.127-57.454 15.381-82.031 7.975-19.206 20.589-34.749 37.842-46.631s36.214-17.822 56.885-17.822c24.74 0 46.875 7.975 66.406 23.926s32.878 38.9 40.039 68.848h0 9.521V5.377h-9.521c-1.139 8.301-3.621 14.364-7.446 18.188s-8.341 5.737-13.55 5.737c-4.069 0-13.59-2.93-28.564-8.789-25.879-10.091-50.456-15.137-73.73-15.137-31.576 0-61.401 7.812-89.478 23.437s-50.374 37.598-66.895 65.918-24.78 58.268-24.78 89.844c0 29.948 7.446 58.187 22.339 84.717s36.051 46.875 63.477 61.035 58.797 21.24 94.116 21.24zM907.357 344v-9.033h-10.986c-9.277 0-16.642-1.587-22.095-4.761s-9.115-6.877-10.986-11.108-2.808-14.811-2.808-31.738l.001-218.461c.025-16.197.92-26.222 2.685-30.074 2.441-5.534 5.778-9.44 10.01-11.719 5.859-3.418 13.59-5.127 23.193-5.127h0 10.986v-9.033H734.262v9.033h10.986c9.277 0 16.642 1.587 22.095 4.761s9.074 6.877 10.864 11.108 2.686 14.811 2.686 31.738l-.001 218.461c-.025 16.197-.92 26.222-2.685 30.074-2.279 5.534-5.534 9.44-9.766 11.719-5.859 3.418-13.59 5.127-23.193 5.127h0-10.986V344h173.096zm142.09 0v-9.033c-10.579 0-17.578-.488-20.996-1.465-7.65-1.79-13.428-4.72-17.334-8.789s-5.859-8.464-5.859-13.184c0-6.673 7.568-19.368 22.705-38.086h0l50.537-61.768 48.34 71.533c9.115 13.346 14.811 22.461 17.09 27.344 1.139 2.279 1.709 4.883 1.709 7.813 0 4.232-1.872 7.813-5.615 10.742s-12.044 4.883-24.902 5.859h0V344h161.377v-9.033c-8.789-.977-16.398-3.866-22.827-8.667s-17.212-18.433-32.349-40.894h0l-91.309-135.498 62.744-75.684c16.927-20.345 27.507-32.471 31.738-36.377 6.673-6.022 12.939-10.132 18.799-12.329s13.591-3.377 23.193-3.54h0v-9.033h-121.826v9.033c9.928 0 17.253 1.058 21.973 3.174s8.341 5.046 10.864 8.789 3.784 7.813 3.784 12.207c0 8.789-8.952 24.17-26.855 46.143h0l-34.912 42.725-41.016-62.5-16.846-25.391c-1.139-2.604-1.709-5.697-1.709-9.277 0-4.557 1.872-8.341 5.615-11.353s10.335-4.517 19.775-4.517h0 8.301v-9.033H929.33v9.033c7.487 1.139 13.346 2.848 17.578 5.127s8.545 6.104 12.939 11.475c1.953 2.279 9.847 13.59 23.682 33.936h0l84.229 123.779-65.674 80.078c-19.531 23.763-34.749 39.388-45.654 46.875-8.301 5.697-19.694 9.603-34.18 11.719h0V344h127.197z" stroke="#000" stroke-width="10" fill="none"/>
</svg>
